<svg xmlns="http://www.w3.org/2000/svg" width="40" height="56"><g fill="none" fill-rule="evenodd"><path fill="#FF323C" d="M0 3v50a3 3 0 0 0 3 3h34a3 3 0 0 0 3-3V12H28l.023-12H3a3 3 0 0 0-3 3z"/><path fill="#182125" d="M28 12.023L40 12 28.023.023z"/><path fill="#FFF" d="M18 47.5h5.273v-1.436h-2.591l2.727-4.864V41h-5.054v1.427h2.409L18 47.291v.209zm6.245 0h1.882V41h-1.882v6.5zm3.164 0V41h2.473c1.782 0 2.609.79 2.609 2.173v.036c0 1.364-.918 2.1-2.527 2.1h-.7V47.5h-1.855zm1.855-3.464h.536c.6 0 .918-.281.918-.818v-.036c0-.555-.327-.782-.909-.782h-.545v1.636z"/></g></svg>