<svg viewBox="0 0 40 56" xmlns="http://www.w3.org/2000/svg"><g fill="none" fill-rule="evenodd"><path d="M0 3v50a3 3 0 0 0 3 3h34a3 3 0 0 0 3-3V12H28l.023-12H3a3 3 0 0 0-3 3z" fill="#FF323C"/><path fill="#182125" d="M28 12.023L40 12 28.023.023z"/><path d="M17 47.435V41h2.448c1.764 0 2.583.783 2.583 2.151v.036c0 1.35-.909 2.079-2.502 2.079h-.693v2.169H17zm1.836-3.429h.531c.594 0 .909-.279.909-.81v-.036c0-.549-.324-.774-.9-.774h-.54v1.62zm4.032 3.429V41h2.34c2.286 0 3.447 1.143 3.447 3.141v.072c0 2.007-1.188 3.222-3.456 3.222h-2.331zm1.854-1.422h.423c1.098 0 1.584-.576 1.584-1.773v-.072c0-1.224-.486-1.746-1.602-1.746h-.405v3.591zm4.833 1.422h1.854v-2.277h1.989v-1.359h-1.989v-1.368h2.493V41h-4.347v6.435z" fill="#FFF"/></g></svg>