<svg xmlns="http://www.w3.org/2000/svg" viewBox="0 0 32 32"><g fill="none" fill-rule="evenodd"><circle cx="16" cy="16" r="16" fill="#FDAD40"/><path fill="#FFF" fill-rule="nonzero" d="M20.247 10.844l1.035-1.036a.9.9 0 0 1 1.272 0l.638.638a.897.897 0 0 1 0 1.272l-1.036 1.035A7.2 7.2 0 1 1 15.3 9.655V8.7h-.896a.903.903 0 0 1-.904-.9v-.9c0-.497.406-.9.904-.9h3.592c.5 0 .904.404.904.9v.9c0 .497-.406.9-.904.9H17.1v.956a7.158 7.158 0 0 1 3.147 1.188zM16.2 22.2a5.4 5.4 0 1 0 0-10.8 5.4 5.4 0 0 0 0 10.8zm-.9-8.996a.9.9 0 1 1 1.8 0v3.592a.9.9 0 1 1-1.8 0v-3.592z"/></g></svg>