<svg xmlns="http://www.w3.org/2000/svg" width="116" height="36"><path fill="#FF5A5F" d="M61.134 9.036a2.336 2.336 0 0 1-2.341 2.34 2.336 2.336 0 0 1-2.342-2.34 2.314 2.314 0 0 1 2.342-2.34c1.332.036 2.341 1.08 2.341 2.34zm-9.654 4.716v.576s-1.117-1.44-3.495-1.44c-3.927 0-6.989 2.988-6.989 7.128 0 4.104 3.026 7.128 6.99 7.128 2.413 0 3.494-1.476 3.494-1.476v.612c0 .288.216.504.504.504h2.918V13.248h-2.918a.515.515 0 0 0-.504.504zm0 8.676c-.54.792-1.622 1.476-2.919 1.476-2.305 0-4.07-1.44-4.07-3.888s1.765-3.888 4.07-3.888c1.261 0 2.414.72 2.919 1.476v4.824zm5.583-9.18h3.459v13.536h-3.459V13.248zm51.66-.36c-2.378 0-3.494 1.44-3.494 1.44V6.732h-3.459v20.052h2.918a.515.515 0 0 0 .505-.504v-.612s1.116 1.476 3.494 1.476c3.927 0 6.989-3.024 6.989-7.128s-3.062-7.128-6.953-7.128zm-.576 10.98c-1.333 0-2.378-.684-2.918-1.476v-4.824c.54-.72 1.693-1.476 2.918-1.476 2.305 0 4.07 1.44 4.07 3.888s-1.765 3.888-4.07 3.888zm-8.178-5.112v8.064H96.51v-7.668c0-2.232-.72-3.132-2.666-3.132-1.045 0-2.126.54-2.81 1.332v9.432h-3.459V13.248h2.738c.288 0 .505.252.505.504v.576c1.008-1.044 2.341-1.44 3.674-1.44 1.513 0 2.774.432 3.783 1.296 1.225 1.008 1.693 2.304 1.693 4.572zm-20.786-5.868c-2.378 0-3.495 1.44-3.495 1.44V6.732H72.23v20.052h2.918a.515.515 0 0 0 .504-.504v-.612s1.117 1.476 3.495 1.476c3.926 0 6.988-3.024 6.988-7.128.036-4.104-3.026-7.128-6.952-7.128zm-.577 10.98c-1.333 0-2.377-.684-2.918-1.476v-4.824c.54-.72 1.693-1.476 2.918-1.476 2.306 0 4.071 1.44 4.071 3.888s-1.765 3.888-4.07 3.888zm-9.366-10.98c1.044 0 1.585.18 1.585.18v3.204s-2.882-.972-4.683 1.08v9.468h-3.459V13.248h2.918c.288 0 .505.252.505.504v.576c.648-.756 2.053-1.44 3.134-1.44zM33.323 25.56c-.18-.432-.36-.9-.54-1.296-.289-.648-.577-1.26-.829-1.836l-.036-.036A375.644 375.644 0 0 0 23.957 6.12l-.109-.216c-.288-.54-.576-1.116-.864-1.692-.36-.648-.72-1.332-1.297-1.98C20.534.792 18.877 0 17.112 0 15.31 0 13.689.792 12.5 2.16c-.54.648-.937 1.332-1.297 1.98a73.458 73.458 0 0 1-.865 1.692l-.108.216c-2.773 5.4-5.475 10.872-7.96 16.272l-.036.072c-.253.576-.54 1.188-.829 1.836-.18.396-.36.828-.54 1.296-.469 1.332-.613 2.592-.433 3.888a7.652 7.652 0 0 0 4.684 5.976 7.4 7.4 0 0 0 2.918.576c.288 0 .648-.036.936-.072a9.523 9.523 0 0 0 3.603-1.224c1.477-.828 2.882-2.016 4.467-3.744 1.585 1.728 3.026 2.916 4.467 3.744a9.523 9.523 0 0 0 3.602 1.224c.289.036.649.072.937.072 1.009 0 2.017-.18 2.918-.576 2.522-1.008 4.287-3.312 4.683-5.976.288-1.26.144-2.52-.324-3.852zm-16.247 1.872c-1.946-2.448-3.206-4.752-3.639-6.696-.18-.828-.216-1.548-.108-2.196.072-.576.288-1.08.577-1.512.684-.972 1.837-1.584 3.17-1.584s2.522.576 3.17 1.584c.288.432.504.936.576 1.512.108.648.072 1.404-.108 2.196-.432 1.908-1.693 4.212-3.638 6.696zm14.374 1.692a5.35 5.35 0 0 1-3.279 4.212c-.864.36-1.8.468-2.737.36-.901-.108-1.802-.396-2.738-.936-1.297-.72-2.594-1.836-4.107-3.492 2.377-2.916 3.818-5.58 4.359-7.956a9.017 9.017 0 0 0 .18-3.06 5.839 5.839 0 0 0-.973-2.448c-1.116-1.62-2.99-2.556-5.08-2.556-2.089 0-3.962.972-5.079 2.556a5.839 5.839 0 0 0-.972 2.448 7.47 7.47 0 0 0 .18 3.06c.54 2.376 2.017 5.076 4.359 7.992-1.477 1.656-2.81 2.772-4.107 3.492-.937.54-1.837.828-2.738.936a5.766 5.766 0 0 1-2.738-.36 5.35 5.35 0 0 1-3.278-4.212 5.96 5.96 0 0 1 .324-2.808c.108-.36.288-.72.468-1.152.253-.576.54-1.188.829-1.8l.036-.072a393.428 393.428 0 0 1 7.925-16.164l.109-.216c.288-.54.576-1.116.864-1.656.288-.576.613-1.116 1.009-1.584.756-.864 1.765-1.332 2.882-1.332 1.117 0 2.125.468 2.882 1.332.396.468.72 1.008 1.009 1.584.288.54.576 1.116.864 1.656l.108.216a477.4 477.4 0 0 1 7.89 16.2v.036c.288.576.54 1.224.828 1.8.18.432.36.792.469 1.152.288.936.396 1.836.252 2.772z"/></svg>