<svg xmlns="http://www.w3.org/2000/svg" width="126" height="29"><g fill="none"><path d="M31.287 21.417V2.172H42.65v2.413h-9.01v5.917h8.092v2.413H33.64v6.032h9.642v2.413H31.287zm23.932 0l-3.903-5.113-3.902 5.113h-2.755l5.337-6.836-5.624-7.066h3.1l3.844 5.285 3.903-5.285h3.041l-5.337 7.066 5.05 6.836zm6.542-2.068v9.479h-2.353v-14.19c0-3.619 2.755-7.468 7.06-7.468 4.361 0 7.632 2.758 7.632 7.296 0 4.423-3.328 7.468-7.116 7.468-1.837 0-4.304-.804-5.223-2.585zm9.871-4.883c0-3.102-2.008-4.94-5.566-4.768-1.722.057-4.362 1.321-4.133 5.745.058 1.436 1.55 4.136 4.821 4.136 2.812 0 4.878-1.609 4.878-5.113zm4.477 6.951V7.515h2.353v1.494c1.148-1.322 2.927-1.781 4.82-1.781v2.527c-.286-.057-3.098-.402-4.82 3.275v8.444h-2.353v-.057zm7.805-6.951c0-4.021 2.87-7.296 6.83-7.296 4.935 0 6.772 3.275 6.772 7.468v1.15h-11.02c.173 2.642 2.526 4.02 4.707 3.963 1.607-.057 2.697-.517 3.845-1.666l1.55 1.609c-1.435 1.378-3.272 2.297-5.51 2.297-4.19-.057-7.174-3.16-7.174-7.525zm6.657-4.94c-2.238 0-3.96 1.953-4.074 4.078h8.55c0-2.068-1.491-4.078-4.476-4.078zm8.149 9.938l1.722-1.551c-.057 0 .861.919.976.976.402.345.804.575 1.32.69 1.492.402 4.19.287 4.42-1.781.114-1.15-.747-1.781-1.723-2.183-1.262-.46-2.64-.632-3.902-1.206-1.435-.632-2.353-1.724-2.353-3.332 0-4.194 5.968-4.883 8.666-2.93.115.115 1.435 1.321 1.377 1.321l-1.722 1.379c-.86-1.034-1.664-1.551-3.5-1.551-.919 0-2.181.402-2.41 1.378-.345 1.38 1.204 1.896 2.238 2.183 1.377.345 2.869.575 4.074 1.322 1.665 1.034 2.066 3.274 1.435 4.998-.689 1.895-2.755 2.642-4.591 2.7-2.181.114-4.075-.575-5.625-2.126-.114 0-.401-.287-.401-.287zm12.11 0l1.722-1.551c-.058 0 .86.919.975.976.402.345.804.575 1.32.69 1.493.402 4.19.287 4.42-1.781.114-1.15-.747-1.781-1.722-2.183-1.263-.46-2.64-.632-3.903-1.206-1.434-.632-2.353-1.724-2.353-3.332 0-4.194 5.969-4.883 8.666-2.93.115.115 1.435 1.321 1.378 1.321l-1.722 1.379c-.861-1.034-1.664-1.551-3.5-1.551-.92 0-2.182.402-2.411 1.378-.345 1.38 1.205 1.896 2.238 2.183 1.377.345 2.87.575 4.075 1.322 1.664 1.034 2.066 3.274 1.434 4.998-.688 1.895-2.754 2.642-4.59 2.7-2.182.114-4.076-.575-5.625-2.126-.115 0-.402-.287-.402-.287zm11.191-11.949V6.02h-.516v-.287h1.377v.287h-.516v1.494zm2.583 0V6.136l-.517 1.379h-.114l-.517-1.379v1.379h-.287V5.734h.46l.458 1.206.46-1.206h.459v1.78z" fill="#E43225"/><path d="M15.113 20.89l-1.698-4.422h-9.17L2.547 20.89H.113L7.472 2.376h2.66l7.302 18.513h-2.32zM8.717 5.028l-3.453 9.174h7.189L8.717 5.029zM18.962 20.89V2.375h2.378V20.89zm5.944 0V7.791h2.377V20.89zm4.641-17.353v-.221c-1.811-.055-3.283-1.492-3.34-3.26h-.34c-.056 1.768-1.527 3.205-3.339 3.26v.22c1.812.056 3.283 1.493 3.34 3.261h.34c.056-1.768 1.528-3.205 3.34-3.26z" fill="#F7971D"/></g></svg>