<svg xmlns="http://www.w3.org/2000/svg" width="130" height="26"><g fill="none" fill-rule="evenodd"><path fill="#F90" d="M52.249 20.187c-4.887 3.625-11.971 5.56-18.07 5.56-8.551 0-16.25-3.184-22.074-8.479-.458-.416-.048-.983.501-.66 6.286 3.682 14.058 5.896 22.086 5.896 5.414 0 11.37-1.127 16.847-3.467.827-.354 1.519.545.71 1.15"/><path fill="#F90" d="M54.28 17.847c-.622-.803-4.129-.38-5.703-.192-.48.06-.553-.36-.12-.663 2.792-1.979 7.376-1.407 7.91-.744.535.667-.139 5.29-2.764 7.498-.402.339-.787.158-.607-.291.589-1.481 1.91-4.801 1.285-5.608"/><path fill="#221F1F" d="M48.687 3.024V1.101c0-.291.22-.487.483-.487h8.555c.275 0 .495.2.495.487v1.647c-.004.276-.235.637-.645 1.208l-4.433 6.37c1.647-.04 3.386.207 4.88 1.055.337.191.428.471.454.747v2.053c0 .28-.308.608-.63.438-2.632-1.389-6.128-1.54-9.038.015-.297.162-.608-.162-.608-.442v-1.95c0-.312.004-.847.315-1.322l5.136-7.413h-4.47a.475.475 0 0 1-.494-.483M17.479 15.025h-2.603a.493.493 0 0 1-.465-.446V1.134a.49.49 0 0 1 .501-.483h2.428a.492.492 0 0 1 .472.45v1.757h.047c.634-1.698 1.823-2.49 3.427-2.49 1.629 0 2.647.792 3.379 2.49.63-1.698 2.06-2.49 3.595-2.49 1.09 0 2.284.453 3.012 1.47.824 1.13.656 2.774.656 4.215l-.004 8.485a.493.493 0 0 1-.501.487h-2.6a.497.497 0 0 1-.468-.487V7.412c0-.567.051-1.982-.073-2.52-.194-.903-.776-1.157-1.53-1.157-.63 0-1.29.424-1.556 1.102-.268.678-.242 1.813-.242 2.575v7.126a.493.493 0 0 1-.502.487h-2.599a.494.494 0 0 1-.468-.487l-.004-7.126c0-1.5.245-3.706-1.603-3.706-1.871 0-1.798 2.151-1.798 3.706v7.126a.493.493 0 0 1-.501.487M65.585.367c3.862 0 5.952 3.339 5.952 7.583 0 4.101-2.31 7.355-5.952 7.355-3.793 0-5.857-3.339-5.857-7.498 0-4.186 2.09-7.44 5.857-7.44m.022 2.745c-1.918 0-2.04 2.631-2.04 4.27 0 1.644-.025 5.152 2.018 5.152 2.017 0 2.112-2.83 2.112-4.554 0-1.135-.047-2.491-.388-3.567-.293-.936-.875-1.3-1.702-1.3m10.938 11.912h-2.591a.497.497 0 0 1-.469-.487L73.481 1.09a.493.493 0 0 1 .502-.439h2.412a.499.499 0 0 1 .465.376v2.056h.048c.728-1.839 1.75-2.716 3.547-2.716 1.168 0 2.306.424 3.039 1.585.68 1.076.68 2.885.68 4.185v8.464a.501.501 0 0 1-.501.424h-2.61a.494.494 0 0 1-.461-.424V7.298c0-1.47.168-3.622-1.63-3.622-.633 0-1.215.428-1.504 1.076-.366.822-.414 1.64-.414 2.546v7.24a.502.502 0 0 1-.509.487m9.259-1.069c0-.678.574-1.223 1.28-1.223.707 0 1.282.545 1.282 1.223 0 .674-.575 1.227-1.281 1.227-.707 0-1.281-.553-1.281-1.227m27.576 1.072a.492.492 0 0 1-.483-.486V1.097a.484.484 0 0 1 .465-.442h.955a.49.49 0 0 1 .498.442v1.96c.681-1.555 1.948-2.77 3.548-2.77h.194c1.698 0 2.94 1.26 3.4 3.09.722-1.808 2.076-3.09 3.863-3.09h.197c1.263 0 2.479.817 3.108 2.063.608 1.19.586 2.774.586 4.104l-.004 8.088a.49.49 0 0 1-.465.486H128.1a.5.5 0 0 1-.483-.42V6.454c0-.961.048-1.982-.34-2.859-.396-.895-1.154-1.455-1.966-1.496-.908.044-1.743.711-2.285 1.61-.703 1.16-.677 2.207-.677 3.563v7.344a.502.502 0 0 1-.465.412h-1.135a.495.495 0 0 1-.487-.486l-.007-8.626c0-.792-.047-1.724-.41-2.435-.42-.81-1.175-1.341-1.966-1.382-.82.048-1.647.678-2.138 1.411-.633.936-.754 2.093-.754 3.283v7.749a.497.497 0 0 1-.468.486h-1.139m-7.841.28c-3.694 0-5.349-3.791-5.349-7.583 0-3.986 1.944-7.439 5.664-7.439h.197c3.617 0 5.418 3.678 5.418 7.469 0 4.016-1.995 7.553-5.736 7.553h-.195m.272-1.838c1.215-.04 2.174-.8 2.742-2.064.508-1.135.607-2.435.607-3.68 0-1.356-.146-2.771-.78-3.932-.567-1.013-1.54-1.658-2.573-1.695-1.15.04-2.178.826-2.694 2.034-.465 1.046-.608 2.436-.608 3.592 0 1.301.168 2.804.703 3.936.52 1.072 1.52 1.768 2.603 1.809m-11.814-.06c1.659-.05 2.53-1.388 2.889-3.12.073-.218.238-.383.48-.383l1.094-.004c.26.011.498.21.476.453-.505 2.952-2.274 4.952-4.792 4.952h-.198c-3.668 0-5.25-3.706-5.25-7.468 0-3.733 1.604-7.554 5.272-7.554h.198c2.548 0 4.363 1.975 4.759 4.927 0 .22-.205.412-.447.438l-1.146-.015c-.241-.033-.399-.24-.435-.471-.275-1.647-1.216-2.959-2.783-3.01-2.493.08-3.203 3.168-3.203 5.545 0 2.288.593 5.63 3.086 5.71M41.867 8.602c0 1.021.025 1.872-.487 2.779-.414.736-1.073 1.19-1.801 1.19-1 0-1.585-.767-1.585-1.898 0-2.233 1.987-2.638 3.873-2.638v.567m2.625 6.386a.54.54 0 0 1-.615.062c-.864-.722-1.022-1.057-1.494-1.746-1.428 1.466-2.442 1.905-4.29 1.905-2.193 0-3.896-1.36-3.896-4.083 0-2.126 1.143-3.574 2.775-4.281 1.413-.627 3.387-.737 4.895-.91v-.34c0-.622.047-1.359-.319-1.897-.315-.482-.922-.681-1.46-.681-.992 0-1.875.512-2.09 1.573-.045.236-.217.468-.455.479l-2.522-.273c-.212-.048-.45-.22-.388-.549.578-3.08 3.346-4.009 5.82-4.009 1.267 0 2.922.34 3.921 1.305 1.267 1.19 1.146 2.778 1.146 4.506v4.082c0 1.227.505 1.765.981 2.429.165.235.202.52-.01.696-.531.446-1.476 1.275-1.996 1.739l-.003-.007M7.745 8.602c0 1.021.025 1.872-.487 2.779-.414.736-1.07 1.19-1.801 1.19-1 0-1.582-.767-1.582-1.898 0-2.233 1.988-2.638 3.87-2.638v.567m2.624 6.386a.54.54 0 0 1-.615.062c-.864-.722-1.017-1.057-1.493-1.746-1.428 1.466-2.438 1.905-4.29 1.905-2.19 0-3.896-1.36-3.896-4.083C.075 9 1.221 7.552 2.85 6.845c1.413-.627 3.386-.737 4.895-.91v-.34c0-.622.047-1.359-.315-1.897-.319-.482-.926-.681-1.46-.681-.993 0-1.879.512-2.095 1.573-.044.236-.216.468-.45.479L.899 4.796c-.212-.048-.447-.22-.388-.549C1.093 1.167 3.857.238 6.33.238c1.267 0 2.922.34 3.921 1.305 1.267 1.19 1.146 2.778 1.146 4.506v4.082c0 1.227.505 1.765.981 2.429.169.235.205.52-.007.696-.531.446-1.475 1.275-1.995 1.739l-.008-.007"/></g></svg>