<svg xmlns="http://www.w3.org/2000/svg" width="121" height="46"><path d="M37.787 37.87h-1.286c-.08 0-.16.04-.201.12l-2.291 3.767c-.121.119-.201.119-.282 0l-2.21-3.767a.222.222 0 0 0-.202-.12H30.07a.273.273 0 0 0-.281.278v7.535c0 .158.12.277.281.277h1.246a.273.273 0 0 0 .282-.277v-3.886c0-.238.24-.357.402-.16l1.728 2.777c.12.158.322.158.402 0l1.769-2.776c.16-.198.402-.08.402.159v3.886c0 .158.12.277.281.277h1.287c.16 0 .281-.119.281-.277v-7.535c-.08-.158-.2-.277-.362-.277zm9.608.16a.271.271 0 0 0-.241-.16h-1.367c-.12 0-.201.08-.241.16l-3.377 7.534c-.08.158.04.357.241.357h1.367c.12 0 .201-.08.241-.159l.483-1.269a.27.27 0 0 1 .24-.159h3.418c.12 0 .2.08.241.16l.523 1.268c.04.08.12.159.24.159h1.327c.201 0 .322-.199.242-.357l-3.337-7.535zm-.04 4.758h-1.729c-.2 0-.321-.198-.241-.357l.884-2.181c.08-.198.402-.198.483 0l.884 2.181c.04.159-.12.357-.281.357zm23.436-1.229a.239.239 0 0 1 0-.318l2.452-2.974c.12-.158 0-.396-.2-.396h-1.368a.31.31 0 0 0-.2.079L68.7 41.36c-.161.199-.443.08-.443-.158v-3.093c0-.159-.12-.238-.24-.238H66.81a.23.23 0 0 0-.24.238v7.574c0 .158.12.238.24.238h1.206a.23.23 0 0 0 .241-.238v-1.309c0-.04.04-.119.04-.158l1.046-1.23c.12-.119.321-.119.402 0l2.01 2.855c.04.08.12.12.2.12h1.528c.201 0 .322-.239.201-.397l-2.894-4.005zm13.226 2.815h-3.86a.273.273 0 0 1-.28-.277v-1.19c0-.159.12-.278.28-.278h2.573a.273.273 0 0 0 .282-.277v-.873a.273.273 0 0 0-.282-.277h-2.573a.273.273 0 0 1-.28-.278v-1.15c0-.158.12-.277.28-.277h3.578c.161 0 .282-.12.282-.278v-.991a.273.273 0 0 0-.282-.278H78.39a.273.273 0 0 0-.282.278v7.494c0 .159.12.278.282.278h5.628c.16 0 .281-.119.281-.278v-.991c.04-.238-.12-.357-.281-.357zm10.974-6.504h-6.552a.23.23 0 0 0-.242.239v1.03c0 .16.12.239.242.239h2.13a.23.23 0 0 1 .241.238v5.987c0 .16.12.238.241.238h1.247a.23.23 0 0 0 .24-.238v-5.987c0-.16.121-.238.242-.238h2.13a.23.23 0 0 0 .242-.238v-1.031c.08-.12-.04-.238-.161-.238zm-33.205 2.975c0-1.745-1.366-3.014-3.698-3.014-.844 0-1.688 0-2.573.04a.23.23 0 0 0-.24.238v7.534c0 .159.12.238.24.238h1.246a.23.23 0 0 0 .242-.238v-1.586c0-.198.04-.238.281-.238h1.125c.282 0 .362-.04.443.119l.924 1.824c.04.08.121.159.242.159h1.407c.2 0 .321-.199.24-.357l-1.085-2.102a.306.306 0 0 1 .08-.317c.644-.516 1.126-1.23 1.126-2.3zm-3.577 1.427c-.322 0-.644.04-.965 0a.23.23 0 0 1-.241-.238v-2.418c0-.16.12-.238.24-.238.282 0 .564 0 .925.04 1.046.039 1.85.515 1.85 1.427 0 .753-.563 1.348-1.81 1.427zm61.344-20.263c-.12.119-1.126 6.225-5.548 6.225-1.728 0-2.934-1.268-3.658-2.815 5.387-1.19 7.196-5.393 7.196-8.248 0-3.331-2.412-4.56-4.462-4.56-3.337 0-7.719 3.092-7.719 9.08 0 .556.04 1.071.08 1.547-1.165-.357-2.17-.952-2.853-1.983 1.005-4.441.844-8.684-1.246-8.684-1.166 0-2.171 1.507-2.171 4.838 0 1.308.362 2.775 1.045 4.084-.442 2.023-1.89 6.94-3.779 6.94-2.573 0-1.769-12.095-1.769-13.88 0-1.467-3.577-2.974-4.341-2.22-.322.317-.402 2.3-.402 4.838 0 2.101.16 4.56.643 6.86-.241 1.23-1.326 4.441-3.296 4.441-3.055 0-1.528-11.46-1.528-13.284 0-1.309-3.417-2.538-4.26-1.745-.323.317-.564 2.657-.564 6.266 0 1.507.08 3.093.322 4.6-.322 1.586-1.608 4.163-3.658 4.163-3.297 0-1.85-12.53-.965-20.263.523-.08 1.085-.159 1.648-.238 1.447-.159 3.216-.437 3.216.436 0 2.022 1.367 2.657 2.372 2.657 1.125 0 2.09-.873 2.09-2.538 0-1.626-1.447-3.173-3.98-3.173-1.688 0-3.416.199-5.105.476.12-1.308.241-2.3.241-2.934 0-1.705-3.577-3.37-4.301-2.657-.12.119-.603 2.815-1.045 6.583-2.493.476-4.945.912-7.397.912-.844 0-.723 2.538 2.13 2.538 1.649 0 3.297-.357 4.985-.793a92.35 92.35 0 0 0-.402 8.288c0 2.498.161 4.679.483 6.543-.322 1.388-1.327 4.203-3.216 4.203-3.618 0-1.89-12.333-1.89-14.157 0-.872-3.296-2.776-3.98-2.102-.08.08-.16.635-.16.635s-.442-.317-1.648-.317c-4.623 0-8.321 5.63-8.321 10.746 0 .238 0 .476.04.714-.724 1.666-2.533 4.52-5.789 4.52-1.648 0-2.814-1.07-3.618-2.458 5.065-1.427 7.035-5.79 7.035-8.605 0-3.291-2.814-4.917-4.864-4.917-3.578 0-7.477 3.529-7.477 9.477 0 1.745.321 3.212.884 4.481-.643.992-1.608 1.983-2.934 1.983-3.699 0-1.206-12.253-1.206-13.562 0-.317 0-.952-.603-1.348-.764-.555-5.226-1.11-6.714-1.428v-.872c0-2.38-1.487-2.895-2.492-2.895-1.648 0-1.97 1.824-1.97 2.26 0 .436.12 1.983 1.769 2.895 0 4.402-2.854 14.831-10.492 14.831-5.789 0-7.88-5.869-7.88-10.23 0-7.377 4.383-13.047 7.197-13.047 3.537 0 .402 6.78 3.98 6.78 2.492 0 2.853-2.379 2.853-3.49 0-2.061-2.17-5.908-6.833-5.908C5.829 2.498.362 11.381.362 18.995c0 7.336 5.105 13.205 12.26 13.205 11.055 0 13.789-11.58 14.352-18.043.723.198 2.452.515 2.613.674.281.278-.563 4.203-.563 7.97 0 4.72 1.568 8.527 5.346 8.527 2.372 0 4.262-1.706 5.267-3.014 1.527 1.943 3.738 2.934 5.909 2.934 3.738 0 6.19-2.3 7.397-4.124 1.045 2.776 3.175 4.124 5.105 4.124 2.693 0 4.301-3.569 4.382-4.124.804 2.498 2.693 4.204 4.823 4.204 2.694 0 4.342-2.42 4.985-3.926.965 2.538 2.493 3.926 4.704 3.926 2.532 0 4.18-2.26 4.944-3.768.804 2.221 2.13 3.768 4.221 3.768 2.814 0 4.583-2.856 5.145-4.283.925 2.458 2.372 4.203 4.623 4.203 2.493 0 4.664-3.529 5.95-7.495a7.056 7.056 0 0 0 4.06 1.904c1.246 3.569 4.18 5.552 7.276 5.552 5.387 0 7.477-5.473 7.718-6.742.322-1.308-.924-2.855-1.326-2.458zm-74.57-7.733c2.251 0 .925 8.486-2.774 9.874-.281-.912-.402-1.784-.402-2.459-.04-2.855 1.126-7.415 3.176-7.415zm13.708 13.483c-3.94 0-1.166-13.443 1.97-13.443 2.09 0 1.769 13.443-1.97 13.443zm53.867-13.404c2.17 0 .925 8.764-2.854 9.32a7.562 7.562 0 0 1-.281-1.984c0-2.855 1.085-7.336 3.135-7.336z" fill="#8BA651"/></svg>