<svg xmlns="http://www.w3.org/2000/svg" width="84" height="34"><g fill="none"><path fill="#E53238" d="M10.883 7.392C4.962 7.392.028 9.913.028 17.518c0 6.025 3.318 9.82 11.007 9.82 9.052 0 9.632-5.984 9.632-5.984h-4.386s-.94 3.222-5.513 3.222c-3.725 0-6.403-2.525-6.403-6.064h16.76V16.29c0-3.501-2.214-8.899-10.242-8.899zm-.153 2.839c3.545 0 5.962 2.18 5.962 5.446H4.462c0-3.468 3.154-5.446 6.268-5.446z"/><path fill="#0064D2" d="M21.123.028v23.49c0 1.334-.095 3.206-.095 3.206h4.183s.15-1.345.15-2.574c0 0 2.067 3.245 7.686 3.245 5.918 0 9.938-4.123 9.938-10.03 0-5.495-3.693-9.915-9.928-9.915-5.84 0-7.654 3.164-7.654 3.164V.028h-4.28zm10.854 10.327c4.019 0 6.574 2.993 6.574 7.01 0 4.307-2.951 7.125-6.545 7.125-4.29 0-6.603-3.361-6.603-7.087 0-3.471 2.076-7.048 6.574-7.048z"/><path fill="#F5AF02" d="M53.38 7.392c-8.907 0-9.478 4.895-9.478 5.677h4.434s.232-2.857 4.739-2.857c2.928 0 5.198 1.345 5.198 3.931v.92h-5.198c-6.9 0-10.549 2.026-10.549 6.138 0 4.045 3.37 6.247 7.926 6.247 6.208 0 8.208-3.443 8.208-3.443 0 1.37.105 2.719.105 2.719h3.941s-.152-1.673-.152-2.743v-9.248c0-6.064-4.875-7.34-9.173-7.34zm4.893 10.433v1.228c0 1.6-.985 5.58-6.78 5.58-3.173 0-4.533-1.589-4.533-3.432 0-3.354 4.581-3.376 11.313-3.376z"/><path fill="#86B817" d="M60.166 8.16h4.988l7.158 14.392L79.454 8.16h4.518L70.963 33.782h-4.739l3.754-7.142z"/></g></svg>