<svg xmlns="http://www.w3.org/2000/svg" xmlns:xlink="http://www.w3.org/1999/xlink" width="155" height="22"><defs><path id="a" d="M.01 0H115v22H.01z"/></defs><g fill="none" fill-rule="evenodd"><mask id="b" fill="#fff"><use xlink:href="#a"/></mask><path fill="#82B541" d="M14.75 2.215c-.575-.327-2.236-.124-4.228.5C7.034 5.12 4.092 8.67 3.884 14.363c-.036.138-.382-.022-.446-.058-.942-1.823-1.316-3.74-.525-6.513.144-.247-.331-.552-.417-.465-.173.174-.892.951-1.374 1.786-2.366 4.146-.82 9.468 3.323 11.792 4.142 2.33 9.378.827 11.68-3.355 2.668-4.828.186-14.449-1.374-15.334z" mask="url(#b)"/><path fill="#000" d="M29.58 4.538c-4.912 0-8.479 3.688-8.479 8.77 0 5.12 3.56 8.7 8.652 8.7 2.575 0 4.61-.814 6.228-2.484.482-.53.54-1.038.54-1.227 0-.828-.612-1.43-1.453-1.43-.424 0-.777.16-1.187.544-.92.864-2.121 1.743-4.128 1.743-2.79 0-5.056-2.113-5.2-4.829H35.65c1.209 0 1.791-.566 1.791-1.742 0-.341 0-.596-.072-1.082-.597-4.364-3.51-6.963-7.789-6.963zm0 2.715c2.661 0 4.373 1.714 4.481 4.48h-9.508c.252-2.555 2.395-4.48 5.027-4.48zm18.455-2.715c-2.23 0-4.445 1.292-5.308 3.093v-1.11c0-1.722-1.323-1.809-1.59-1.809-.783 0-1.617.472-1.617 1.808v13.432c0 1.787 1.41 1.88 1.69 1.88s1.69-.086 1.69-1.88V12.75c0-3.13 1.762-5.322 4.28-5.322 2.437 0 3.624 1.619 3.624 4.937v7.58c0 1.786 1.41 1.88 1.69 1.88s1.69-.086 1.69-1.88v-8.647c0-3.268-1.61-6.76-6.149-6.76zm21.446.167c-.784 0-1.345.457-1.683 1.365l-4.624 11.74-4.596-11.74c-.36-.922-.92-1.365-1.719-1.365-.934 0-1.69.733-1.69 1.634 0 .225.022.515.209.965L60.7 19.981c.633 1.525 1.676 1.852 2.438 1.852.762 0 1.805-.32 2.438-1.852l5.35-12.742c.18-.45.21-.777.21-.93 0-.914-.713-1.604-1.655-1.604zm9.824-.167c-2.164 0-4.178.61-5.667 1.714-.503.355-.755.79-.755 1.343 0 .762.575 1.357 1.316 1.357.317 0 .676-.13 1-.363 1.287-.864 2.488-1.27 3.797-1.27 2.503 0 3.934 1.285 3.934 3.521v.37c-5.61.008-11.313.69-11.313 5.62 0 3.544 3 5.134 5.977 5.134 2.366 0 4.265-.952 5.473-2.745v.864c0 1.285.856 1.743 1.59 1.743.15 0 1.517-.051 1.517-1.743v-9.032c0-4.08-2.568-6.513-6.869-6.513zm2.92 9.192h.712v.784c0 2.875-1.812 4.734-4.617 4.734-.762 0-3.25-.181-3.25-2.483 0-2.723 4.077-3.035 7.155-3.035zm12.752-5.925c1.481 0 1.553-1.161 1.553-1.394 0-.69-.41-1.43-1.553-1.43h-3.042v-3.1C91.935.494 91.043 0 90.28 0c-.28 0-1.69.086-1.69 1.88v14.746c0 3.405 1.662 5.199 4.812 5.199.812 0 1.61-.146 2.129-.392.596-.298.934-.792.934-1.35 0-.792-.568-1.359-1.344-1.359-.151 0-.367.037-.605.11a2.74 2.74 0 0 1-.697.1c-1.28 0-1.877-.841-1.877-2.656V7.805h3.035zm11.176-3.267c-5.113 0-8.824 3.66-8.824 8.698 0 2.454.898 4.69 2.531 6.295 1.618 1.598 3.855 2.469 6.293 2.469 5.049 0 8.853-3.768 8.853-8.771.008-5.039-3.718-8.691-8.853-8.691zm0 14.572c-3.502 0-5.336-2.955-5.336-5.874 0-4.015 2.769-5.837 5.336-5.837 2.568 0 5.336 1.83 5.336 5.837.008 4.037-2.761 5.874-5.336 5.874z" mask="url(#b)"/></g></svg>