<svg xmlns="http://www.w3.org/2000/svg" width="64" height="31"><path fill="#FF6C2C" d="M6.867 2.378c0-.318.025-.509.572-.509h7.273c1.272 0 1.971 1.081 2.48 3.116l.407 1.627h1.246c.23-4.603.407-6.612.407-6.612s-3.115.356-4.96.356H4.986L0 .178v1.335l1.679.318c1.17.229 1.462.483 1.55 1.551 0 0 .103 3.18.103 8.419 0 5.239-.102 8.392-.102 8.392 0 .954-.382 1.297-1.551 1.526L0 22.05v1.336l4.985-.153h8.329c1.882 0 6.23.153 6.23.153.102-1.145.738-6.333.827-6.892h-1.17l-1.246 2.823c-.992 2.225-2.416 2.39-4.005 2.39H9.22c-1.59 0-2.353-.635-2.353-2.009V12.45s3.535 0 4.68.102c.89.063 1.423.318 1.716 1.551l.381 1.653h1.361l-.102-4.17.191-4.197h-1.36l-.446 1.844c-.292 1.208-.47 1.437-1.716 1.564-1.628.153-4.705.127-4.705.127V2.378zm41.9 26.157c-.955 0-1.247-.445-1.374-1.081l-.483-2.48-1.336.064c-.19 1.462-.483 3.115-.864 4.425.89.61 1.97.89 3.433.89 2.162 0 5.404-.61 8.33-7.502l5.086-12.055c.406-.954.534-1.08 1.78-1.551L64 8.99V7.871l-3.026.153-3.18-.153v1.12l.827.254c.827.254 1.208.534 1.208 1.208 0 .356-.102.508-.28.953-.356.89-2.606 6.46-3.713 8.876-1.411-3.51-3.319-8.723-3.548-9.486a1.637 1.637 0 0 1-.101-.509c0-.508.356-.915 1.119-1.08l1.042-.23V7.872L50 8.024l-3.46-.153v1.12l.573.19c.827.28.916.381 1.462 1.59 2.188 4.959 4.642 11.291 5.443 13.351-1.73 3.46-3.764 4.413-5.252 4.413zm-13.01-10.262l-1.207.025c.152 1.526.19 3.052 0 4.451 0 0 2.416.89 4.857.89 3.306 0 5.951-1.59 5.951-4.68 0-5.404-8.01-4.552-8.01-8.163 0-1.5 1.372-2.06 2.771-2.06 1.17 0 2.137.407 2.315 1.017l.788 2.39 1.17-.063c.063-1.271.152-2.734.356-3.916-1.017-.445-3.154-.7-4.476-.7-3.116 0-5.62 1.374-5.62 4.426 0 5.34 7.82 4.17 7.82 8.163 0 1.335-.865 2.353-2.772 2.353-1.806 0-2.696-.916-3.052-1.844l-.89-2.289zM25.75 3.268c-.674 3.84-2.505 5.24-4.768 5.493v1.12h2.822v9.765c0 2.734 1.806 4.07 4.222 4.07 1.882 0 3.815-.789 4.476-2.442l-.661-.865c-.305.534-1.322 1.323-2.594 1.323-1.399 0-2.162-.954-2.162-3.37V9.753l4.705.356.255-2.161-4.96.178V3.268H25.75z"/></svg>