<svg xmlns="http://www.w3.org/2000/svg" width="151" height="37"><g fill="none"><path fill="#29B2FE" d="M29.045 0l3.323 4.709L49.18 0M11.576 36.662l9.095-8.984-5.474-5.935M27.667 0l-4.86 4.429 8.176.308M8.77 0l1.746 3.615 9.622.606M13.92 18.746l7.11-13.398L.386 4.221M14.75 19.596l6.715 7.287 7.407-7.335L31.17 5.885l-9.026-.466"/><path fill="#161F2B" d="M43.253 17.183h-1.84L39.8 27.465a.593.593 0 0 1-.562.49h-3.682c-.267 0-.45-.22-.408-.49l2.26-14.42c.572-3.646 2.394-4.455 4.89-4.455.775 0 1.587.074 2.222.196.283.05.474.22.432.49l-.365 2.326c-.042.269-.29.465-.582.465h-1.017c-.605 0-.813.244-.928.98l-.104.66h1.842c.266 0 .45.22.407.49l-.39 2.497a.595.595 0 0 1-.563.49h.001zm9.19.172h-.338c-1.042 0-2.058.147-2.874.562l-1.49 9.498c-.042.27-.278.54-.569.54h-3.634a.462.462 0 0 1-.448-.539l2.072-13.219c.042-.27.222-.49.561-.49h3.489c.34 0 .465.122.408.49l-.092.587c1.27-1.15 2.162-1.273 3.446-1.273.412 0 .469.097.408.49l-.469 2.986c-.045.294-.154.368-.469.368zm12.174 4.798h-7.535l-.007.049c-.204 1.297.203 2.104 1.972 2.104 1.284 0 3.677-.121 4.633-.196.392-.025.525.048.467.416l-.345 2.204c-.06.392-.185.562-.592.685-1.631.515-3.34.76-5.376.76-3.27 0-6.026-1.739-5.294-6.414l.254-1.616c.675-4.308 3.514-6.658 7.488-6.658 4.24 0 5.776 2.716 5.158 6.658l-.23 1.47a.614.614 0 0 1-.595.537h.002zm-3.53-2.669c.23-1.469-.214-2.35-1.425-2.35-1.163 0-1.93.882-2.161 2.35l-.011.074h3.585l.012-.074zm16.94 2.669h-7.535l-.007.049c-.203 1.297.204 2.104 1.972 2.104 1.284 0 3.677-.121 4.634-.196.391-.025.526.048.468.416l-.345 2.204c-.062.392-.186.562-.592.685-1.632.515-3.341.76-5.377.76-3.27 0-6.026-1.739-5.293-6.414l.253-1.616c.676-4.308 3.515-6.658 7.489-6.658 4.24 0 5.776 2.716 5.159 6.658l-.23 1.47c-.05.317-.304.537-.594.537h-.002zm-3.531-2.669c.23-1.469-.213-2.35-1.424-2.35-1.163 0-1.931.882-2.161 2.35l-.012.074h3.585l.012-.074zm8.449 8.47h-3.658c-.267 0-.491-.268-.449-.538l2.805-17.895c.042-.269.343-.49.61-.49h3.658c.267 0 .45.22.408.49l-2.805 17.895c-.042.269-.302.538-.569.538zm12.876 0h-3.368c-.266 0-.45-.22-.408-.489l.082-.514c-1.029.685-2.324 1.224-3.657 1.224-1.913 0-3.974-1.077-3.456-4.382l.046-.294c.46-2.938 2.83-3.99 6.876-3.99h1.042l.112-.71c.188-1.2-.166-1.42-1.377-1.42-1.357 0-3.557.123-4.243.172-.415.025-.502-.196-.456-.49l.372-2.374c.058-.367.271-.49.577-.588.838-.244 2.975-.588 4.526-.588 3.513 0 5.882 1.274 5.253 5.289l-1.359 8.666a.595.595 0 0 1-.562.49v-.001zm-3.097-5.899h-1.187c-1.211 0-1.757.392-1.918 1.42l-.039.245c-.13.832.388 1.077 1.067 1.077.582 0 1.262-.172 1.705-.367l.372-2.375zm17.089 5.9h-3.634a.462.462 0 0 1-.449-.539l1.3-8.299c.204-1.297-.142-1.713-1.233-1.713-.557 0-1.294.22-1.897.514l-1.489 9.498c-.042.27-.278.539-.57.539h-3.633a.462.462 0 0 1-.449-.539l2.072-13.22a.594.594 0 0 1 .561-.49h3.368c.267 0 .45.22.408.49l-.088.563c1.437-.979 2.836-1.248 4.194-1.248 3.802 0 3.865 2.692 3.409 5.605l-1.301 8.3c-.043.27-.279.54-.57.54v-.001zm10.748-.172c-.855.196-1.952.392-3.38.392-3.708 0-5.415-2.4-4.785-6.414l.288-1.836c.626-3.99 3.093-6.438 6.8-6.438 1.43 0 2.606.22 3.257.39.303.074.454.197.404.515l-.434 2.766c-.046.294-.225.514-.582.465-.812-.072-1.572-.17-2.759-.17-1.041 0-1.75.66-2.034 2.473l-.288 1.835c-.284 1.812.222 2.448 1.264 2.448 1.186 0 1.97-.049 2.81-.147.37-.048.485.147.436.465l-.43 2.742c-.051.32-.24.441-.568.515zm14.22-5.63h-7.535l-.007.049c-.204 1.297.203 2.104 1.971 2.104 1.285 0 3.678-.121 4.634-.196.391-.025.525.048.468.416l-.346 2.204c-.06.392-.185.562-.592.685-1.63.515-3.34.76-5.376.76-3.27 0-6.027-1.739-5.294-6.414l.254-1.616c.675-4.308 3.514-6.658 7.488-6.658 4.239 0 5.776 2.716 5.158 6.658l-.23 1.47c-.05.317-.304.537-.594.537h.001zm-3.531-2.669c.23-1.469-.213-2.35-1.425-2.35-1.162 0-1.93.882-2.16 2.35l-.012.074h3.585l.012-.074zm11.15-5.777l-2.157 13.709c-.042.27-.279.539-.57.539h-3.634a.462.462 0 0 1-.448-.539l1.432-9.07 5.378-4.638-.001-.001z"/><path fill="#29B2FE" d="M143.639 13.707l-.745 4.703 7.992-4.703"/></g></svg>