<svg xmlns="http://www.w3.org/2000/svg" width="148" height="25"><g fill="#010101"><path d="M32.645 20.053h-3.371V5.888h3.371zM46.323 6.42l-.239 2.997c-.914-.591-2.016-.888-3.306-.888s-2.37.411-3.24 1.233c-.87.821-1.305 1.89-1.305 3.208 0 1.318.442 2.383 1.327 3.197.884.814 1.992 1.221 3.327 1.221 1.435 0 2.573-.281 3.414-.844l-.283 3.087c-.841.503-2.052.755-3.631.755a7.91 7.91 0 0 1-2.73-.489 8.183 8.183 0 0 1-2.425-1.387c-.724-.6-1.308-1.38-1.75-2.343-.442-.962-.663-2.028-.663-3.197 0-1.554.383-2.908 1.153-4.063.768-1.155 1.713-2.002 2.837-2.542a8.146 8.146 0 0 1 3.578-.81c1.652-.001 2.964.288 3.936.865zm16.331 6.528c0 2.205-.743 3.996-2.229 5.373-1.486 1.376-3.237 2.065-5.251 2.065-2 0-3.745-.689-5.23-2.065-1.486-1.377-2.23-3.168-2.23-5.373 0-2.176.744-3.952 2.23-5.33 1.485-1.375 3.23-2.064 5.23-2.064 1.29 0 2.5.297 3.631.889 1.131.591 2.055 1.462 2.772 2.609.718 1.146 1.077 2.445 1.077 3.896zm-3.415 0c0-1.273-.405-2.32-1.217-3.142-.813-.821-1.761-1.232-2.849-1.232-1.087 0-2.033.41-2.837 1.232-.806.82-1.208 1.869-1.208 3.142 0 1.287.402 2.342 1.208 3.164.804.82 1.75 1.232 2.837 1.232 1.088 0 2.036-.411 2.849-1.232.812-.822 1.217-1.877 1.217-3.164zm18.398 7.26h-1.696l-5.393-6.04a68.7 68.7 0 0 1-2.589-3.108l-.043.023a69.42 69.42 0 0 1 .066 2.975v5.995h-3.37V5.888h2.718l4.697 5.284c.884.99 1.637 1.894 2.261 2.708l.044-.023a51.239 51.239 0 0 1-.066-2.641V5.888h3.371v14.32zM88.314 8.707H83.4v2.82h4.044v2.864H83.4v5.662h-3.37V5.888h8.284v2.82zm5.11 11.346h-3.371V5.888h3.371zm15.636.155h-1.697l-5.393-6.04a68.7 68.7 0 0 1-2.589-3.108l-.042.023c.042 1.007.065 1.998.065 2.975v5.995h-3.37V5.888h2.718l4.697 5.284c.884.99 1.638 1.894 2.262 2.708l.043-.023a51.637 51.637 0 0 1-.066-2.641V5.888h3.371v14.32zM121.4 7.82c1.442 1.287 2.164 3.004 2.164 5.15 0 2.146-.722 3.863-2.164 5.151-1.443 1.287-3.2 1.932-5.273 1.932h-4.676V5.888h4.676c2.072 0 3.83.643 5.273 1.931zm-2.479 8.202c.848-.717 1.272-1.734 1.272-3.053 0-1.317-.424-2.334-1.272-3.052-.848-.717-1.91-1.077-3.186-1.077h-1.043v8.26h1.043c1.276 0 2.338-.36 3.186-1.078zm15.299 4.031h-8.7V5.888h8.09v2.82h-4.719v2.82h3.85v2.863h-3.85v2.842h5.328v2.82zm13.568 0h-3.762l-3.74-5.574h-1.196v5.574h-3.24V5.888h5.175c1.232 0 2.287.392 3.164 1.176.878.785 1.315 1.82 1.315 3.109 0 .798-.203 1.516-.608 2.153-.406.636-.913 1.102-1.523 1.399l4.415 6.328zm-5.523-9.88c0-.504-.171-.892-.512-1.167-.34-.274-.75-.41-1.228-.41h-1.435v3.175h1.435c.478 0 .888-.136 1.228-.411.34-.273.512-.67.512-1.187zm-131.424.579a1.63 1.63 0 0 1 1.07 1.54c0 .902-.715 1.632-1.598 1.632a1.6 1.6 0 0 1-1.508-1.093c-.196.47-.303.986-.303 1.527 0 2.164 1.717 3.917 3.835 3.917s3.836-1.753 3.836-3.917c0-2.162-1.718-3.916-3.836-3.916a3.76 3.76 0 0 0-1.496.31z"/><path d="M9.144 4.897l.002-.002a8.039 8.039 0 0 1 4.815-1.598c1.006 0 1.962.16 2.85.5a.618.618 0 0 0 .17.035.353.353 0 0 0 .368-.36.478.478 0 0 0-.158-.347C14.837.913 12.337 0 12.337 0 6.758 2.277 2.656 7.786 2.538 14.081a10.118 10.118 0 0 0 3.367 7.833 8.218 8.218 0 0 1-3.762-3.459c-.503-.89-.847-1.815-1.002-2.77a.63.63 0 0 0-.054-.167c-.106-.188-.31-.251-.49-.146a.465.465 0 0 0-.214.314C-.318 18.873.158 21.54.158 21.54c4.79 3.85 11.643 4.692 17.08 1.486 2.559-1.509 4.2-4.015 4.722-6.76l.002.003a8.47 8.47 0 0 1-1.053 5.057c-.503.889-1.116 1.656-1.85 2.271a.604.604 0 0 0-.114.13c-.105.187-.058.401.12.507.122.072.258.07.374.033 3.054-.974 5.079-2.729 5.079-2.729.855-6.053-1.749-12.416-6.999-15.676a9.64 9.64 0 0 0-8.375-.965zM20.312 12.5c.08.402.123.814.123 1.234 0 3.95-3.625 7.15-8.098 7.15-4.472 0-8.097-3.2-8.097-7.15 0-.42.043-.833.122-1.234 1.68-1.759 4.623-2.928 7.975-2.928 3.352 0 6.294 1.17 7.975 2.928z"/></g></svg>