<svg xmlns="http://www.w3.org/2000/svg" width="121" height="29"><g fill="none" fill-rule="evenodd"><path fill="#3D3F56" fill-rule="nonzero" d="M45.398 6.353a1.62 1.62 0 0 1 .5-1.187c.32-.333.766-.514 1.228-.499.448-.008.877.173 1.183.499.324.31.505.74.5 1.187v12.46a5.96 5.96 0 0 1-1.82 4.36 6.007 6.007 0 0 1-4.375 1.812 1.586 1.586 0 0 1-1.183-.498 1.574 1.574 0 0 1-.5-1.178 1.62 1.62 0 0 1 .5-1.187 1.586 1.586 0 0 1 1.183-.499 2.73 2.73 0 0 0 1.992-.825c.525-.526.81-1.243.792-1.984V6.353zm16.976 18.623a9.817 9.817 0 0 1-7.205-2.99 9.742 9.742 0 0 1-3.003-7.178 9.787 9.787 0 0 1 3.003-7.196 9.836 9.836 0 0 1 7.205-2.972 9.89 9.89 0 0 1 7.224 2.973 9.814 9.814 0 0 1 2.984 7.195 9.76 9.76 0 0 1-2.984 7.178 9.863 9.863 0 0 1-7.224 2.99zm0-16.992a6.6 6.6 0 0 0-4.83 1.994 6.576 6.576 0 0 0-2.02 4.83 6.522 6.522 0 0 0 2.02 4.812 6.828 6.828 0 0 0 4.84 2.01c1.817 0 3.56-.723 4.84-2.01a6.549 6.549 0 0 0 2-4.812 6.594 6.594 0 0 0-1.992-4.83 6.645 6.645 0 0 0-4.858-1.994zm23.372 16.992a9.817 9.817 0 0 1-7.205-2.99 9.742 9.742 0 0 1-3.002-7.178 9.787 9.787 0 0 1 3.002-7.196c3.985-3.966 10.443-3.966 14.429 0a9.814 9.814 0 0 1 2.984 7.196 9.76 9.76 0 0 1-2.984 7.178 9.863 9.863 0 0 1-7.224 2.99zm0-16.992a6.6 6.6 0 0 0-4.867 1.994 6.576 6.576 0 0 0-2.02 4.83 6.522 6.522 0 0 0 2.02 4.812 6.828 6.828 0 0 0 4.84 2.01c1.818 0 3.56-.723 4.84-2.01a6.549 6.549 0 0 0 2.001-4.812 6.594 6.594 0 0 0-2.001-4.83 6.645 6.645 0 0 0-4.813-1.994zm33.343-3.317c.364.094.685.308.91.607.228.286.35.641.346 1.006v17.03a1.6 1.6 0 0 1-.482 1.178 1.686 1.686 0 0 1-2.384 0 1.592 1.592 0 0 1-.482-1.178V12.29l-5.304 8.727-.055.1v.054l-.072.072-.173.11-.055.054-.082.072-.1.054-.1.055h-.082a1.534 1.534 0 0 1-.682.127h-.055a1.643 1.643 0 0 1-.373-.073h-.209l-.11-.054-.1-.073-.363-.108-.064-.055-.054-.054-.073-.073a.135.135 0 0 1 0-.054l-.073-.1-5.358-8.781v11.02c.007.445-.174.873-.5 1.178-.305.31-.72.487-1.156.49a1.698 1.698 0 0 1-1.674-1.668V6.289c-.004-.364.118-.72.345-1.006.226-.299.547-.513.91-.607a1.726 1.726 0 0 1 1.065.055 1.7 1.7 0 0 1 .828.697l6.996 11.51 6.996-11.51c.166-.306.428-.551.746-.697l.528-.2.545.136z"/><path stroke="#E0E0E0" d="M22.18.453H6.942C2.984.453.455 2.973.455 6.915v15.18c0 3.933 2.53 6.452 6.487 6.452H22.18c3.949 0 6.478-2.52 6.478-6.462V6.915c0-3.924-2.53-6.462-6.487-6.462h.01z"/><path fill="#3D3F56" fill-rule="nonzero" d="M21.38 4.305v14.337c0 3.353-2.702 6.053-6.032 6.053V10.358c.009-3.353 2.711-6.053 6.032-6.053z"/><ellipse cx="10.744" cy="21.696" fill="#F64343" fill-rule="nonzero" rx="3.011" ry="3"/></g></svg>