<svg xmlns="http://www.w3.org/2000/svg" width="118" height="24"><path d="M0 .117h1.872V22h10.1l-.884 1.849H0V.117zm25.316 0h-1.873L12.98 23.85h1.872l2.723-6.177c.324-.61 1.075-1.161 2.08-1.642 1.594-.762 3.819-1.233 6.297-1.233 2.192 0 5.274.423 7.26 1.781l1.162-1.45a8.785 8.785 0 0 0-1.312-.764 12.53 12.53 0 0 0-1.762-.675L25.316.117zm-6.234 14.137L24.38 2.24l4.836 10.967a19.93 19.93 0 0 0-3.264-.263c-2.638 0-5.055.498-6.869 1.31zm11.564 2.199c.424.136.816.29 1.17.46a5.5 5.5 0 0 1 .833.472l.4.272 2.73 6.193h-1.872l-3.261-7.397zM65.139.117h-1.873L52.803 23.85h1.872l2.723-6.177c.324-.61 1.075-1.161 2.08-1.642 1.594-.762 3.82-1.233 6.297-1.233 2.193 0 5.274.423 7.261 1.781l1.162-1.45a8.778 8.778 0 0 0-1.313-.764 12.538 12.538 0 0 0-1.762-.675L65.14.117zm-6.233 14.137L64.203 2.24l4.835 10.967a19.932 19.932 0 0 0-3.263-.263c-2.639 0-5.056.498-6.87 1.31zm11.563 2.199c.424.136.816.29 1.171.46a5.535 5.535 0 0 1 .833.472l.4.272 2.73 6.193H73.73l-3.261-7.397zM107.536.117h-1.872L95.2 23.85h1.872l2.724-6.177c.324-.61 1.075-1.161 2.08-1.642 1.594-.762 3.819-1.233 6.296-1.233 2.193 0 5.275.423 7.262 1.781l1.161-1.45a8.778 8.778 0 0 0-1.312-.764 12.536 12.536 0 0 0-1.762-.675L107.536.117zm-6.233 14.137L106.6 2.24l4.836 10.967a19.931 19.931 0 0 0-3.264-.263c-2.638 0-5.056.498-6.869 1.31zm11.563 2.199c.424.136.817.29 1.172.46a5.501 5.501 0 0 1 .833.472l.399.272L118 23.85h-1.872l-3.262-7.397zM38.163 1.965L37.28.117h15.273v1.848L39.76 22.001h12.038l-.883 1.849H37.82l-.442-1.051 12.86-20.834zM77.6 11.983V.117h4.883c3.517 0 6.074.286 7.664.854 2.283.81 4.07 2.203 5.353 4.197 1.238 1.917 1.88 4.187 1.926 6.815-.045 2.628-.688 4.899-1.926 6.815-1.284 1.994-3.07 3.389-5.353 4.198-1.59.568-4.146.854-7.664.854h-4.884V11.983zm1.842 10.126h2.867c3.427 0 5.799-.222 7.125-.666 1.864-.635 3.336-1.768 4.403-3.412 1.068-1.649 1.822-3.66 1.822-6.035s-.754-4.385-1.822-6.034c-1.067-1.644-2.54-2.777-4.403-3.412-1.326-.444-3.698-.666-7.125-.666h-2.867v20.225z" fill="#033A63" fill-rule="evenodd"/></svg>