<svg xmlns="http://www.w3.org/2000/svg" width="104" height="49"><g fill="none"><path fill="#FAA810" d="M22.024.864c.888-.908 2.56-.856 3.344.164 1.62 1.92 3.252 3.832 4.84 5.784-.576.245-1.152.269-1.684-.064-.204.22-.408.441-.608.666-1.884-.381-3.744.153-5.632-.008-.028.791-.736.916-1.336.671-1.492-.253-3.012-.341-4.516-.446-.556.31-.98.844-1.56 1.097-.416-.197-.556-.768-.848-1.1 2.628-2.298 5.336-4.503 8-6.764z"/><path fill="#6D6E70" d="M10.504 4.028c3.012-.847 6.036-1.763 9.1-2.397-2.892 2.442-5.792 4.892-8.704 7.318-.664 6.65-1.196 13.338-1.76 20.01-2.624-1.33-5.108-2.945-7.684-4.367-1.088-.594-1.62-2.044-.976-3.157C3.836 15.64 7.136 9.812 10.504 4.028z"/><path fill="#FAFFFD" d="M22.9 2.908c1.056-.639 2.376.883 1.304 1.699-1.076 1.024-2.444-.896-1.304-1.7z"/><path fill="#F5960E" d="M28.524 6.748c.532.333 1.108.309 1.684.064 1.232 1.498 2.496 2.98 3.748 4.466.18.643-.032 1.313-.068 1.96-1.924.562-3.936.398-5.908.414-1.128-.004-2.06.831-3.192.807-1.456.056-2.916-.008-4.372.008.156-2.133.404-4.257.532-6.39.6.245 1.308.12 1.336-.67 1.888.16 3.748-.374 5.632.007.2-.225.404-.446.608-.666z"/><path fill="#F69A0E" d="M14.872 8.728c.58-.253 1.004-.788 1.56-1.097-.2 2.036-.32 4.077-.528 6.113-1.46-.149-2.964-.606-4.42-.173.076-1.393.244-2.775.356-4.165.756-.558 1.436-1.213 2.184-1.779.292.333.432.904.848 1.1z"/><path fill="#FEFFFE" d="M16.432 7.631c1.504.105 3.024.193 4.516.446-.128 2.133-.376 4.257-.532 6.39-.18 2.14-.38 4.278-.564 6.418-.116 1.454-.288 2.904-.36 4.362 2.88.217 5.748.526 8.628.731.052.104.152.313.204.418-.156 1.2-.248 2.406-.336 3.61-4.468-.39-8.932-.783-13.396-1.172.192-1.944.304-3.892.512-5.836.14-1.575.26-3.153.412-4.723.136-1.51.256-3.02.388-4.53.208-2.037.328-4.078.528-6.114z"/><path fill="#6D6F70" d="M37.36 9.443c1.76-1.221 4.344.55 3.88 2.61-.16 2.004-2.94 2.84-4.292 1.466-1.188-1.072-.992-3.293.412-4.076z"/><path fill="#6C6F70" d="M63.752 9.41c1.876-1.233 4.508.84 3.744 2.956-.376 1.788-2.932 2.454-4.172 1.17-1.304-1.041-1.044-3.366.428-4.126z"/><path fill="#F28B0C" d="M11.484 13.571c1.456-.433 2.96.024 4.42.173-.132 1.51-.252 3.02-.388 4.53-.984.093-2.048-.188-2.956.314-.484.277-1.024-.048-1.52-.088.128-1.643.268-3.29.444-4.929z"/><path fill="#EF830C" d="M27.98 13.652c1.972-.016 3.984.148 5.908-.414-.204 2.374-.4 4.743-.604 7.113-.936-.004-1.916-.012-2.668-.663.016.358.028.72.032 1.08-2.636.141-5.28.11-7.912.418-.976.181-1.948-.024-2.884-.3.184-2.141.384-4.278.564-6.419 1.456-.016 2.916.048 4.372-.008 1.132.024 2.064-.811 3.192-.807z"/><path fill="#6D6E70" d="M42.804 14.021c4.396 3.161 8.612 6.583 13.04 9.688-.104-2.904-.016-5.812-.044-8.72 1.652-.052 3.304-.04 4.956-.02l.184.197c-.096 5.792-.004 11.583-.048 17.375-4.384-3.137-8.6-6.543-12.972-9.7-.04 2.952-.016 5.908-.008 8.86-1.704.06-3.404.02-5.108.024-.012-5.904-.004-11.804 0-17.704zm-6.536.92c1.648.056 3.292-.008 4.936.028.216 5.539.04 11.178.088 16.756a430.38 430.38 0 0 1-5.092-.004c.032-5.586-.096-11.205.068-16.78z"/><path fill="#6D6F70" d="M62.516 14.961c1.688 0 3.372 0 5.06-.012.052 5.59.016 11.182.02 16.776-1.7 0-3.404.029-5.104-.016.028-5.582-.024-11.165.024-16.748z"/><path fill="#6D6E70" d="M75.4 15.194c2.74-.699 5.82.008 7.872 1.992 2.364 2.165 3.244 5.756 2.228 8.788-.804 2.63-3.032 4.767-5.68 5.478-2.852.792-6.168.033-8.212-2.164-2.16-1.997-2.88-5.242-2.196-8.045.696-2.92 3.108-5.306 5.988-6.049z"/><path fill="#ED7C0B" d="M12.56 18.588c.908-.502 1.972-.221 2.956-.313-.152 1.57-.272 3.148-.412 4.723a16.662 16.662 0 0 0-4.564 1.225c.16-1.908.328-3.816.5-5.723.496.04 1.036.365 1.52.088z"/><path fill="#FFF" d="M76.564 19.038c1.644-.354 3.456.277 4.444 1.662 1.252 1.547 1.2 3.985-.136 5.463-1.2 1.546-3.504 2.008-5.236 1.144-1.348-.686-2.408-2.056-2.472-3.61-.256-2.133 1.38-4.153 3.4-4.66z"/><path fill="#E97109" d="M30.616 19.688c.752.651 1.732.659 2.668.663-.216 2.193-.372 4.39-.592 6.579-.328.22-.668.414-1.024.578-.412-.168-.8-.385-1.208-.558-.18.233-.332.482-.528.703-.676-.205-1.168-.727-1.608-1.257-.052-.105-.152-.314-.204-.418-2.88-.205-5.748-.514-8.628-.731.072-1.458.244-2.908.36-4.362.936.277 1.908.482 2.884.301 2.632-.309 5.276-.277 7.912-.417a32.15 32.15 0 0 0-.032-1.08z"/><path fill="#E86B0A" d="M10.54 24.223a16.662 16.662 0 0 1 4.564-1.225c-.208 1.944-.32 3.892-.512 5.836-1.48.184-2.976.08-4.46.068.132-1.562.256-3.12.408-4.68z"/><path fill="#E45C07" d="M28.324 26.396c.44.53.932 1.052 1.608 1.257.196-.221.348-.47.528-.703.408.173.796.39 1.208.558a7.361 7.361 0 0 0 1.024-.578 190.52 190.52 0 0 1-.416 4.775c-.16 1.077-1.196 1.908-2.28 1.844-5.988-.55-11.98-1.032-17.968-1.599-1.472-.084-2.228-1.727-1.896-3.048 1.484.012 2.98.116 4.46-.068 4.464.39 8.928.783 13.396 1.172.088-1.204.18-2.41.336-3.61z"/><path fill="#E2E2E2" d="M72.152 34.332c.592-.189 1.22-.217 1.836-.217 8.94.052 17.88-.024 26.82.032 1.536-.084 2.956 1.278 2.94 2.824.024 3.06.032 6.129-.032 9.193-.032 1.503-1.464 2.695-2.932 2.579-8.268.02-16.536.016-24.8.016-1.4-.012-2.884.2-4.196-.394-1.088-.526-1.472-1.827-1.416-2.956.044-2.827.028-5.655.032-8.486-.04-1.125.768-2.137 1.748-2.59z"/><path fill="#6C6F70" d="M77.728 38.328c1.244-.542 2.636-.413 3.94-.208.012.373.032 1.12.044 1.494-1.112-.129-2.536-.498-3.392.47-.552.819-.416 2.02.128 2.82.868.863 2.164.521 3.228.365.008.365.02 1.096.024 1.462-1.772.405-4.252.433-5.2-1.442-.628-1.643-.592-4.117 1.228-4.96zm6.764-.116c1.264-.422 2.804-.43 3.96.301 1.292.916 1.276 2.711 1.056 4.121-.464 2.683-4.42 3.069-6.06 1.293-1.168-1.71-1.08-4.795 1.044-5.715zm6.208-.217c.728-.269 1.348-.02 1.772.607 1.188-.743 2.86-1.029 3.904.124 1.252-1.06 3.796-1.225 4.356.647.364 1.831.08 3.743.164 5.61-.6.009-1.2.005-1.8-.015-.128-1.744.288-3.58-.228-5.266-.716-.506-1.636-.18-2.164.43-.02 1.606.008 3.213.008 4.82-.636.052-1.272.048-1.908.028-.036-1.607.048-3.214-.028-4.816-.228-1.165-1.912-.723-2.268.12-.04 1.559.004 3.121 0 4.684-.6.024-1.2.028-1.796.008-.032-2.326.004-4.655-.012-6.98z"/><path fill="#E1E2E1" d="M85.352 39.565c1.868-1.032 3.052 1.507 2.264 2.989-.3 1.313-2.592 1.297-2.864-.032-.316-.956-.3-2.322.6-2.957z"/><path fill="#6E6F71" d="M73.22 43.289c.6-.012 1.204-.02 1.812-.024.112.57.12 1.148.028 1.73-.62-.003-1.24-.011-1.856-.02-.02-.562-.012-1.124.016-1.686z"/></g></svg>