<svg xmlns="http://www.w3.org/2000/svg" width="145" height="42"><g fill="none" fill-rule="evenodd"><path d="M144.796 40.369c0 .83-.687 1.51-1.526 1.51H1.667c-.838 0-1.524-.68-1.524-1.51V1.596C.143.765.829.085 1.668.085H143.27c.839 0 1.526.68 1.526 1.51V40.37z"/><path d="M5.225 5.12h134.488v31.725H5.225z"/><g fill-rule="nonzero"><g fill="#BF0000"><path d="M32.796 35.013c-1.36 1.4-3.069 2.108-5.091 2.108-3.784 0-6.47-2.937-6.47-7.049 0-3.974 2.72-7.1 6.19-7.1 2.215 0 4.098 1.209 5.214 3.316l-2.232 1.296c-.645-1.399-1.708-2.193-2.999-2.193-1.918 0-3.383 2.003-3.383 4.664 0 2.678 1.552 4.648 3.697 4.648 1.046 0 1.953-.363 2.546-1.003v-1.762H27.6v-2.419h5.196v5.494zm1.564 1.831V22.35h2.826v14.495H34.36zm14.156-5.441c0 3.316-2.162 5.718-5.143 5.718-2.982 0-5.144-2.402-5.144-5.718 0-3.317 2.162-5.702 5.161-5.702 2.964 0 5.126 2.402 5.126 5.702zm-7.69.017c0 1.779 1.082 3.11 2.547 3.11 1.464 0 2.546-1.331 2.546-3.128 0-1.796-1.082-3.127-2.564-3.127-1.447 0-2.528 1.348-2.528 3.145zm11.349-4.458c.645-.83 1.5-1.261 2.563-1.261 2.825 0 5.127 2.575 5.127 5.702 0 3.178-2.25 5.718-5.04 5.718-1.063 0-1.953-.433-2.65-1.261l-.349.984H49.56V22.35h2.615v4.613zm0 4.44c0 1.935 1.046 3.3 2.528 3.3 1.412 0 2.546-1.468 2.546-3.282 0-1.849-1.116-3.3-2.546-3.3-1.464 0-2.528 1.382-2.528 3.283zm16.162 4.458c-.698.829-1.604 1.26-2.703 1.26-2.755 0-4.987-2.573-4.987-5.717 0-3.145 2.302-5.702 5.126-5.702 1.064 0 1.901.415 2.564 1.261l.349-1.002h2.266v10.884h-2.266l-.35-.984zm-5.075-4.457c0 1.83 1.134 3.3 2.546 3.3 1.465 0 2.529-1.366 2.529-3.283 0-1.935-1.064-3.3-2.546-3.3-1.412 0-2.529 1.451-2.529 3.283zm9.255 5.441V22.35h2.825v14.495h-2.825zm19.017-13.596v13.596h-2.616v-9.726l-3.575 5.165-3.574-5.165v9.726h-2.615V23.248h2.912l3.277 4.734 3.279-4.734zm8.732 12.612c-.697.829-1.604 1.26-2.702 1.26-2.756 0-4.987-2.573-4.987-5.717 0-3.145 2.301-5.702 5.127-5.702 1.062 0 1.9.415 2.562 1.261l.35-1.002h2.266v10.884h-2.266l-.35-.984zm-5.073-4.457c0 1.83 1.133 3.3 2.545 3.3 1.465 0 2.528-1.366 2.528-3.283 0-1.935-1.063-3.3-2.545-3.3-1.413 0-2.528 1.451-2.528 3.283zm11.59-4.441c.697-.812 1.848-1.261 3.192-1.261v2.42c-1.24.085-1.936.43-2.46 1.191-.296.45-.453.985-.453 1.572v5.96h-2.615V25.961h2.092l.244 1.001zm11.377 9.882l-4.394-4.612v4.612h-2.615V22.35h2.615v7.55l3.715-3.939h3.696l-5.16 5.114 5.84 5.77z"/><path d="M130.637 34.685c-1.238 1.676-2.634 2.436-4.464 2.436-3.156 0-5.423-2.384-5.423-5.701 0-3.248 2.214-5.736 5.074-5.736 2.825 0 5.075 2.54 5.075 5.684 0 .276-.018.518-.053.794h-7.202c.174 1.538 1.17 2.488 2.599 2.488.784 0 1.5-.432 2.127-1.261l2.267 1.296zm-2.685-4.734c-.262-1.296-.995-1.97-2.11-1.97-1.064 0-1.867.726-2.145 1.97h4.255zm7.681-6.374v2.383h2.946v2.419h-2.946v5.528c0 .484.296.795.784.795.506 0 .854-.294 1.203-.967l2.093 1.192c-.977 1.606-1.918 2.194-3.592 2.194-1.43 0-2.616-.743-2.947-1.832-.088-.311-.157-.933-.157-1.52v-5.39h-1.884V25.96h1.884v-2.383h2.616z"/></g><path fill="#BF0000" d="M20.473 12.675c0 4.172-3.413 7.552-7.624 7.552-4.213 0-7.623-3.38-7.623-7.552s3.41-7.555 7.623-7.555c4.21 0 7.624 3.383 7.624 7.555z"/><path fill="#FFF" d="M11.84 16.733v-2.517h1.102l1.906 2.517h1.95l-2.305-3.038a2.797 2.797 0 0 0 1.19-2.28c0-1.545-1.268-2.8-2.826-2.8h-2.573v8.118h1.557zm0-6.576h1.017c.7 0 1.27.563 1.27 1.257 0 .697-.57 1.26-1.27 1.26H11.84v-2.517z"/><path fill="#000" d="M71.949 16.443c-.141.293-.456.72-1.091.72-.408 0-1.176-.27-1.176-1.297v-4.695h3.841V8.588h-3.84V5.876h-2.608v2.712h-1.852v2.583h1.852v4.695c-.001 2.43 1.923 3.882 3.783 3.882 1.902 0 3.163-1.283 3.63-2.629l-2.54-.676zM39.74 8.588v.483a4.74 4.74 0 0 0-2.54-.75c-2.835 0-5.142 2.562-5.142 5.709 0 3.148 2.307 5.709 5.143 5.709.923 0 1.788-.275 2.54-.75v.482h2.607V8.588H39.74zm-2.54 8.568c-1.398 0-2.536-1.402-2.536-3.126 0-1.722 1.138-3.125 2.537-3.125 1.4 0 2.54 1.403 2.54 3.125 0 1.724-1.14 3.126-2.54 3.126zm24.503-8.568v6.393c0 1.2-.984 2.175-2.195 2.175a2.187 2.187 0 0 1-2.195-2.175V8.588h-2.608v6.393c0 2.624 2.154 4.758 4.803 4.758a4.81 4.81 0 0 0 2.195-.53v.262h2.607V8.588h-2.607zM90.86 8.32c-.79 0-1.535.195-2.194.531v-.263H86.06V19.47h2.607v-6.39c0-1.2.984-2.176 2.195-2.176 1.21 0 2.195.976 2.195 2.176v6.393h2.607V13.08c0-2.622-2.154-4.759-4.802-4.759zm-5.844 5.71c0-3.153-2.31-5.719-5.146-5.719-2.886 0-5.146 2.513-5.146 5.719 0 3.37 2.902 5.719 5.507 5.719 1.315 0 3.116-.447 4.531-2.437l-2.27-1.299c-1.926 2.331-4.61.75-4.877-1.223l7.35.002a6.79 6.79 0 0 0 .051-.762zm-2.949-1.55h-4.396c.487-2.116 3.912-2.557 4.396 0zm-33.034 1.21l5.15-5.102h-3.687l-3.976 3.94V4.977h-2.607V19.47h2.607v-4.62l4.662 4.62h3.686z"/><path fill="#000" d="M24.605 19.471v-4.216h1.845l3.193 4.216h3.264l-3.859-5.088c1.203-.855 1.993-2.245 1.993-3.82 0-2.587-2.123-4.688-4.734-4.688h-4.31v13.596h2.608zm0-11.014h1.702c1.17 0 2.128.944 2.128 2.106a2.12 2.12 0 0 1-2.128 2.108h-1.702V8.457z"/></g></g></svg>