<svg xmlns="http://www.w3.org/2000/svg" width="115" height="35"><g fill="none"><path fill="#4B4B4B" d="M70.703 8.492c-4.725.023-8.573 3.906-8.552 8.74.023 4.834 3.91 8.683 8.634 8.66 4.726-.023 8.575-3.907 8.554-8.74-.024-4.834-3.91-8.683-8.636-8.66zm.065 13.856a5.044 5.044 0 0 1-5.072-5.026 5.044 5.044 0 0 1 5.024-5.073 5.044 5.044 0 0 1 5.073 5.025c.014 2.688-2.338 5.061-5.025 5.074zm19.075-9.757c-2.47.011-4.395 2.062-4.383 4.533l.039 8.27-3.76.019-.076-16.436 3.76-.018.012 2.577s1.598-2.584 4.82-2.599l1.074-.006.019 3.652-1.505.008zM52.338 9.115l2.846 11.266L58.14 9.088l3.76-.017-4.65 16.457-3.652.017-2.954-11.48-2.846 11.506-3.653.017-4.91-16.412 3.652-.017 3.275 11.264 2.632-11.291 3.545-.017zm49.984 7.284c2.57-1.515 4.384-4.317 4.368-7.54l-3.76.019c.014 2.793-2.232 5.059-4.917 5.071l-.537.002-.06-12.997-3.76.018.116 24.384 3.758-.017-.035-7.734.43-.002c.43-.002.86.21.97.533l5.295 7.17 4.404-.02-6.272-8.887z"/><path fill="#6FDA44" d="M30.53 8.68c-4.081.019-7.184 2.719-8.345 7.02-1.948-2.998-3.468-6.428-4.34-9.324l-4.297.02.054 11.387a4.082 4.082 0 1 1-8.164.039L5.385 6.435l-4.298.02.054 11.387c.023 4.725 3.798 8.47 8.418 8.446 4.619-.022 8.362-3.8 8.34-8.524l-.01-1.934c.867 1.714 1.95 3.534 3.14 5.141l-2.627 12.58 4.403-.021 1.893-9.14c1.722 1.067 3.66 1.701 5.914 1.691 4.726-.023 8.576-3.906 8.552-8.848-.022-4.728-3.908-8.575-8.634-8.553zm.061 12.997c-1.718.008-3.44-.736-4.841-1.912l.421-1.72v-.107c.314-1.829 1.265-4.948 4.487-4.962a4.31 4.31 0 0 1 4.318 4.276c-.097 2.471-2.128 4.415-4.385 4.425z"/><path fill="#4B4B4B" d="M109.055 9.386l-1.182.005v-.43l2.9-.014.002.43-1.182.006.016 3.33-.43.002-.016-3.33h-.108zm2.47-.442l.43-.001 1.298 2.036 1.279-2.048.43-.002.018 3.653-.43.002-.015-3.008-1.28 1.94-1.299-1.929.015 3.008-.429.001-.017-3.652z"/></g></svg>