<svg xmlns="http://www.w3.org/2000/svg" width="32" height="32"><g fill="none"><path d="M10.492 31.083v-7.369l-5.41 4.054a15.672 15.672 0 0 0 5.41 3.315m10.492 0a15.677 15.677 0 0 0 5.424-3.328l-5.423-4.053-.001 7.38M.9 21.333a16 16 0 0 0 .62 1.528l2.04-1.528H.9m27.013 0l2.043 1.53c.232-.497.438-1.008.62-1.53h-2.663" fill="#2A5F9E"/><path d="M11.256 19.2H.316c.145.73.343 1.442.583 2.133h2.66l-2.04 1.528a15.93 15.93 0 0 0 1.464 2.505l5.411-4.033h2.098v1.104l-6.142 4.6c.237.252.48.497.732.734l5.41-4.054v7.368c.68.245 1.38.445 2.098.594V19.2h-1.333m19.903 0H18.887v12.479a15.245 15.245 0 0 0 2.099-.593v-7.38l5.424 4.052a15.92 15.92 0 0 0 1.974-2.232l-5.59-4.193h3.552l3.18 2.384c.152-.28.295-.565.431-.855l-2.042-1.529h2.662c.24-.691.438-1.403.583-2.133" fill="#FFF"/><path d="M3 25.39a15.907 15.907 0 0 0 1.35 1.646l6.142-4.599v-1.104H8.418L3 25.39m19.799-4.057l5.587 4.185a15.762 15.762 0 0 0 .637-.948c.175-.279.343-.563.5-.853l-3.179-2.384H22.8" fill="#ED4C5C"/><path d="M20.984.914v7.369l5.41-4.055a15.706 15.706 0 0 0-5.41-3.314zm-10.492 0a15.677 15.677 0 0 0-5.425 3.328l5.424 4.052V.914zm20.086 9.753a16.009 16.009 0 0 0-.62-1.529l-2.04 1.529h2.66m-27.018 0l-2.04-1.53a16.096 16.096 0 0 0-.62 1.53h2.662" fill="#2A5F9E"/><path d="M20.219 12.8H31.16a16.084 16.084 0 0 0-.584-2.133h-2.66l2.04-1.529a16.047 16.047 0 0 0-1.463-2.505l-5.413 4.034h-2.096V9.563l6.14-4.6a15.444 15.444 0 0 0-.73-.734l-5.41 4.054V.913c-.68-.244-1.38-.444-2.099-.592V12.8h1.334m-19.903 0H12.59V.321c-.719.147-1.419.348-2.098.593l-.001 7.38-5.424-4.052a15.95 15.95 0 0 0-1.973 2.232l5.588 4.192H5.131L1.952 8.282c-.152.28-.296.565-.432.855l2.042 1.53H.901a15.96 15.96 0 0 0-.584 2.132" fill="#FFF"/><g fill="#ED4C5C"><path d="M28.475 6.61a15.786 15.786 0 0 0-1.337-1.631l-.014-.016-6.14 4.6v1.104h2.073l5.418-4.058M8.676 10.666L3.088 6.482c-.194.266-.379.54-.557.82l-.08.127c-.174.28-.342.563-.5.854l3.179 2.384h3.545"/><path d="M31.16 12.8H18.887V.321a15.58 15.58 0 0 0-6.295 0V12.8H.317a16.31 16.31 0 0 0 0 6.4H12.59v12.479a15.615 15.615 0 0 0 6.295 0V19.2h12.276a16.314 16.314 0 0 0 0-6.4"/></g></g></svg>