<svg xmlns="http://www.w3.org/2000/svg" width="32" height="32"><g fill="none"><path fill="#FFCE31" d="M0 16c0 3.139.907 6.062 2.468 8.533h27.064A15.92 15.92 0 0 0 32 16a15.92 15.92 0 0 0-2.468-8.533H2.468A15.92 15.92 0 0 0 0 16z"/><path d="M29.532 7.467C26.697 2.98 21.698 0 16 0S5.303 2.981 2.468 7.467h27.064zM2.468 24.533C5.303 29.02 10.302 32 16 32s10.697-2.981 13.532-7.467H2.468z" fill="#ED4C5C"/><path d="M3.862 14.246H5.57v.94H3.862zm-.023 7.031H5.59v.881H3.839z" fill="#C8B100"/><path fill="#ED4C5C" d="M3.702 19.765c-.173.1-.291.204-.272.255.01.047.064.082.143.134.124.087.2.24.14.312a.442.442 0 0 0-.011-.7"/><path fill="#FFF" d="M4.09 15.177h1.244v6.098H4.09z"/><g fill="#ED4C5C"><path d="M6.606 17.458c-.272-.112-.733-.196-1.263-.213a3.798 3.798 0 0 0-.596.054c-.745.124-1.312.421-1.267.664l.004.02-.283-.653c-.05-.27.58-.6 1.405-.737.26-.043.513-.06.733-.058.528 0 .987.068 1.264.17l.003.753"/><path d="M4.088 18.224c-.345-.025-.58-.117-.609-.26-.02-.117.096-.243.304-.36.093.011.198.024.306.024l-.001.596m1.251-.464c.215.033.377.086.458.152l.007.013c.038.079-.15.247-.467.434l.002-.599"/><path d="M3.315 19.403c-.033-.1.303-.296.78-.471.216-.078.396-.159.62-.256.66-.293 1.147-.628 1.088-.75l-.007-.012.09.631c.06.112-.387.442-.995.733-.195.093-.606.245-.8.313-.347.121-.693.348-.66.432l-.116-.62"/></g><path d="M15.283 14.246h1.706v.94h-1.706zm-.023 7.031h1.753v.881H15.26z" fill="#C8B100"/><path fill="#ED4C5C" d="M17.152 19.765c.173.1.291.204.273.255-.01.047-.065.082-.144.134-.124.087-.2.24-.14.312a.442.442 0 0 1 .011-.7"/><path fill="#FFF" d="M15.52 15.177h1.245v6.098H15.52z"/><g fill="#ED4C5C"><path d="M14.246 17.458c.272-.112.734-.196 1.264-.213.182.001.385.018.596.054.744.124 1.311.421 1.266.664l-.004.02.283-.653c.05-.27-.579-.6-1.405-.737a4.264 4.264 0 0 0-.731-.058c-.53 0-.99.068-1.266.17l-.003.753"/><path d="M16.764 18.224c.346-.025.582-.117.609-.26.02-.117-.096-.243-.304-.36-.093.011-.198.024-.306.024l.001.596m-1.249-.464c-.216.033-.378.086-.459.152l-.007.013c-.039.079.15.247.467.434l-.001-.599"/><path d="M17.537 19.403c.034-.1-.303-.296-.78-.471-.216-.078-.396-.159-.619-.256-.66-.293-1.148-.628-1.087-.75l.006-.012-.09.631c-.06.112.387.442.995.733.194.093.605.245.8.313.347.121.692.348.66.432l.115-.62m-7.16-8.588c1.021 0 3.082.234 3.835.943-.793 1.92-2.093 1.132-3.818 1.132-1.731 0-3.03.79-3.827-1.132.75-.704 2.793-.943 3.81-.943"/></g><path d="M13.037 12.95c-.664-.372-1.595-.45-2.624-.453-1.028.002-1.952.081-2.616.452l.238.901c.6.18 1.441.292 2.38.293.94 0 1.78-.112 2.38-.293l.242-.9m.893-2.262c-.203-.177-.616-.294-1.033-.294-.165 0-.324.018-.47.05.022.025-.294-.442-1.043-.442a1.39 1.39 0 0 0-.692.173l-.005-.031a.282.282 0 0 0-.278-.21c-.135 0-.256.09-.284.21l-.004.03a1.387 1.387 0 0 0-.69-.172c-.734 0-1.065.466-1.044.443a2.105 2.105 0 0 0-.47-.051c-2.463 0-1.202 1.657-1.202 1.657l.202-.33c-.57-.747-.075-1.2 1-1.2.135 0 .265.013.386.037-.367.547.32 1.006.32 1.006l.16-.261c-.388-.246-.419-1.175.648-1.175.265 0 .504.072.674.188-.006.058-.056.776-.111.921l.415.393.411-.393c-.055-.145-.104-.862-.11-.92.169-.116.409-.189.675-.189 1.096 0 1.134.922.648 1.175l.159.26s.582-.462.32-1.005c.121-.024.252-.039.387-.036 1.273.018 1.36.947 1 1.2l.201.33s.553-.736-.17-1.364" fill="#C8B100"/><path fill="#005BBF" d="M10.069 9.632a.33.33 0 0 1 .339-.322c.188 0 .34.144.34.322a.33.33 0 0 1-.34.321.33.33 0 0 1-.34-.321"/><path fill="#C8B100" d="M10.32 8.733v.174h-.187v.176h.186v.506h-.234l-.016.043.026.127.003.003h.622v-.003l.027-.127-.016-.043h-.226v-.506h.188v-.176h-.188v-.174z"/><path fill="#ED4C5C" d="M10.413 14.021c-.847 0-1.61-.099-2.196-.25.583-.15 1.349-.242 2.196-.244.848.002 1.616.094 2.2.245-.582.15-1.352.249-2.2.25"/><path d="M10.442 23.267a6.534 6.534 0 0 1-2.83-.655A1.81 1.81 0 0 1 6.59 20.99v-2.55h7.69v2.55a1.81 1.81 0 0 1-1.024 1.622 6.46 6.46 0 0 1-2.813.655m-.018-9.097h3.854v4.266h-3.854z" fill="#FFF"/><path fill="#ED4C5C" d="M10.428 20.987c0 1.007-.854 1.824-1.918 1.824s-1.926-.817-1.926-1.824v-2.554h3.844v2.554"/><path d="M7.423 22.49c.121.065.286.171.462.213l-.01-4.362h-.452v4.15zm-.845-1.535c.01.538.225.938.44 1.2v-3.79h-.435l-.005 2.59" fill="#C8B100"/><path fill="#C7B500" d="M8.28 22.801c.177.018.308.014.45 0v-4.457h-.45v4.457"/><path fill="#C8B100" d="M9.125 22.705a1.51 1.51 0 0 0 .462-.201v-4.16h-.45l-.012 4.361"/><path fill="#ED4C5C" d="M6.585 14.17h3.842v4.266H6.585z"/><path fill="#C8B100" d="M10.007 22.112c.188-.167.364-.545.428-.977l.011-2.79h-.45l.01 3.766"/><path d="M14.283 18.434v2.554c0 1.007-.864 1.824-1.928 1.824s-1.927-.817-1.927-1.824v-2.554h3.855m-1.393-3.52c.137.322.136 1.108-.344.94.09.032.137.434.302.62.282.32.59.033.515-.31-.131-.59-.063-.967.056-1.542.01.077.267.063.36-.057-.07.153-.084.367-.023.373-.094.154-.387.41-.406.583-.037.37.52 1.092-.109 1.236-.418.096-.166.426.01.592-.006-.004-.193.68-.11.65-.45.163-.302-.2-.302-.2.192-.614-.348-.678-.302-.785-.533-.028.068.499-.438.499-.085 0-.305.092-.309.092-.586-.048-.24-.607-.07-.526.164.078.313.345.34-.027 0 0-.272-.432.405-.428-.25-.002-.448-.238-.532-.478-.089.068-.294.324-.862.369 0 0-.18-.573-.003-.493.196.088.345.092.524-.111-.128-.136-.749-.383-.656-.763.026-.102.314-.255.314-.255-.046.263.092.516.434.557.44.053.259-.105.297-.24.034-.119.364.045.284-.223-.011-.038-.381-.124-.26-.24.297-.271.656-.106.887.169m-2.435 7.81l-.125-.283.125-.286.124.286-.124.283" fill="#ED4C5C"/><path d="M7.709 15.083v.285h.124v.195h-.266v.565h.142v1.136h-.284v.582H9.6v-.582h-.282v-1.136h.142v-.565h-.266v-.195h.124v-.285h-.53v.285h.124v.195h-.266v-.619h.142v-.284h-.55v.284h.143v.619h-.266v-.195h.124v-.285zm6.024 6.574v-2.662h-2.756v2.662l1.288.593h.181l1.287-.593m-1.47-2.48l.002.927-.928-.927h.926m-1.104.081l1.067 1.066-1.067 1.066v-2.133m.074 2.319l1.032-1.033v1.503l-1.032-.47m1.213.47v-1.502l1.032 1.033-1.032.47m1.105-.657l-1.067-1.066 1.067-1.066v2.133m-1.105-2.214h.928l-.928.927v-.927" fill="#C8B100"/><path fill="#ED4C5C" d="M9.192 18.418c0-.774.557-1.401 1.245-1.401.687 0 1.245.627 1.245 1.4 0 .773-.558 1.4-1.245 1.4-.688 0-1.245-.627-1.245-1.4"/><path fill="#005BBF" d="M9.561 18.415c0-.568.393-1.028.877-1.028.483 0 .876.46.876 1.028 0 .567-.392 1.028-.876 1.028s-.877-.46-.877-1.028"/><path d="M10.023 17.707l-.226.586.154.053-.072.203h.292l-.073-.203.153-.053-.228-.586m.815 0l-.227.586.157.053-.075.203h.291l-.073-.203.156-.053-.23-.586m-.407.702l-.227.584.155.054-.072.201h.291l-.072-.201.155-.054-.23-.584" fill="#C8B100"/></g></svg>