<svg xmlns="http://www.w3.org/2000/svg" viewBox="0 0 32 32"><g fill="none"><circle cx="16" cy="16" r="16" fill="#2A5F9E"/><path d="M16 5.227l.383 1.178h1.238l-1.002.725L17 8.306l-1-.726-.997.727.38-1.176-1-.725h1.238zm0 18.121l.382 1.177h1.24l-1.003.728.382 1.174L16 25.7l-.997.726.38-1.174-1-.728h1.238zm4.49-1.465l.385 1.178h1.237l-1.003.727.384 1.176-1.002-.73-1 .73.381-1.176-.997-.727h1.234zm3.094-3.093l.383 1.177h1.238l-1.002.728.384 1.177-1.003-.728-1.003.728.384-1.177-.997-.728h1.234zm1.464-4.503l.382 1.177h1.237l-.998.727.38 1.176-1.001-.727-1 .727.381-1.176-1-.727h1.238zm-1.464-4.504l.383 1.178h1.238l-1.002.726.384 1.177-1.003-.727-1.003.727.384-1.177-.997-.726h1.234zM20.49 6.691l.385 1.177h1.237l-1.003.724.384 1.179-1.002-.727-1 .727.381-1.179-1.003-.724h1.24zm-8.98 15.192l-.383 1.178H9.89l1 .727-.382 1.176 1-.73 1.001.73-.382-1.176 1-.727h-1.236zM8.417 18.79l-.385 1.177H6.798l1 .728-.382 1.177 1-.728 1 .728-.381-1.177 1-.728H8.8zm-1.462-4.503l-.384 1.177H5.333l1 .727-.381 1.176 1.003-.727.998.727-.382-1.176 1-.727H7.334zm1.462-4.504l-.385 1.178H6.798l1 .726-.382 1.177 1-.727 1 .727-.381-1.177 1-.726H8.8zm3.093-3.092l-.383 1.177H9.891l1 .724-.382 1.179 1-.727 1.001.727-.382-1.179 1-.724h-1.236z" fill="#FFCE31"/></g></svg>