<svg xmlns="http://www.w3.org/2000/svg" width="32" height="32"><g fill="none"><path fill="#699635" d="M8 29.902V2.623c-4.78 2.724-8 7.81-8 13.64 0 5.828 3.22 10.914 8 13.639z"/><path fill="#ED4C5C" d="M16 .525c-2.915 0-5.646.77-8 2.108v27.255a16.136 16.136 0 0 0 8 2.109c8.836 0 16-7.046 16-15.738S24.836.521 16 .521"/><g fill="#FFE62E"><path d="M8 9.967c-3.534 0-6.4 2.819-6.4 6.295 0 3.477 2.866 6.295 6.4 6.295 3.534 0 6.4-2.818 6.4-6.295 0-3.476-2.866-6.295-6.4-6.295M8 21.77c-3.092 0-5.6-2.466-5.6-5.508 0-3.041 2.508-5.508 5.6-5.508 3.092 0 5.6 2.466 5.6 5.508S11.092 21.77 8 21.77"/><path d="M10.187 22.39a.272.272 0 0 1-.377 0l-7.32-9.474a.26.26 0 0 1 0-.37l.19-.186a.271.271 0 0 1 .377 0l7.319 9.474a.26.26 0 0 1 0 .37l-.19.187"/><path d="M8.133 9.705c.147 0 .267.118.267.262v12.59c0 .145-.12.263-.267.263h-.266a.266.266 0 0 1-.267-.263V9.967c0-.144.12-.262.267-.262h.266"/><path d="M14.372 16.965L8 15.86v.799l6.234 1.081a.267.267 0 0 0 .308-.213l.047-.258a.263.263 0 0 0-.217-.304M8 15.78l-5.013-3.453a.27.27 0 0 0-.371.064l-.153.215a.26.26 0 0 0 .065.366L8 16.74v-.96"/><path d="M7.777 15.213l-5 4.929a.26.26 0 0 0 0 .37l.19.186a.272.272 0 0 0 .376 0l4.434-4.371v-1.114zM8 12.878l-6.68 3.064a.261.261 0 0 0-.129.349l.113.237a.27.27 0 0 0 .355.127L8 13.746v-.868"/><path d="M13.91 13.734l-6.373-1.106v.8l6.234 1.08a.267.267 0 0 0 .308-.212l.047-.258a.264.264 0 0 0-.217-.304m-5.972 6.135a.26.26 0 0 0-.128.348l.112.238a.27.27 0 0 0 .354.127l5.317-2.439.288-1-5.943 2.726m.013-1.776l-5.976-2.139v.838l5.976 2.14z"/><path d="M3.8 19.805v.79l7.898.517c.3-.219.578-.464.833-.732L3.8 19.805"/></g><path fill="#FFF" d="M5.333 13.64v3.671c0 1.448 1.194 2.623 2.667 2.623 1.473 0 2.667-1.175 2.667-2.623V13.64H5.333"/><path fill="#ED4C5C" d="M8 20.984c-2.058 0-3.733-1.648-3.733-3.673v-4.72h7.466v4.72c0 2.025-1.674 3.673-3.733 3.673m-1.6-6.295v2.622c0 .868.718 1.574 1.6 1.574.882 0 1.6-.706 1.6-1.574V14.69H6.4"/><path d="M7.541 14.878v.868c0 .133.11.241.246.241h.43a.244.244 0 0 0 .244-.24v-.869h-.92m0 1.312v.868c0 .133.11.241.246.241h.43a.244.244 0 0 0 .244-.241v-.868h-.92m-1.071 0v.868c0 .133.11.241.245.241h.43a.244.244 0 0 0 .245-.241v-.868h-.92m2.143 0v.868c0 .133.11.241.246.241h.429a.244.244 0 0 0 .245-.241v-.868h-.92m-1.072 1.279v.868c0 .132.11.241.246.241h.43c.134 0 .244-.11.244-.241v-.868h-.92" fill="#0071BC"/><g fill="#FFF" transform="translate(6.4 14.689)"><ellipse cx="1.6" cy="2.054" rx="1" ry="1"/><ellipse cx="1.383" cy="2.317" rx="1" ry="1"/><ellipse cx="1.821" cy="2.317" rx="1" ry="1"/><ellipse cx="1.383" cy="1.795" rx="1" ry="1"/><ellipse cx="1.821" cy="1.795" rx="1" ry="1"/><ellipse cx="1.596" cy=".739" rx="1" ry="1"/><ellipse cx="1.379" cy="1.001" rx="1" ry="1"/><ellipse cx="1.817" cy="1.001" rx="1" ry="1"/><ellipse cx="1.379" cy=".48" rx="1" ry="1"/><ellipse cx="1.817" cy=".48" rx="1" ry="1"/><ellipse cx="2.672" cy="2.054" rx="1" ry="1"/><ellipse cx="2.455" cy="2.317" rx="1" ry="1"/><ellipse cx="2.892" cy="2.317" rx="1" ry="1"/><ellipse cx="2.455" cy="1.795" rx="1" ry="1"/><ellipse cx="2.892" cy="1.795" rx="1" ry="1"/><ellipse cx=".525" cy="2.052" rx="1" ry="1"/><ellipse cx=".308" cy="2.314" rx="1" ry="1"/><ellipse cx=".746" cy="2.314" rx="1" ry="1"/><ellipse cx=".308" cy="1.793" rx="1" ry="1"/><ellipse cx=".746" cy="1.793" rx="1" ry="1"/><ellipse cx="1.598" cy="3.336" rx="1" ry="1"/><ellipse cx="1.381" cy="3.598" rx="1" ry="1"/><ellipse cx="1.819" cy="3.598" rx="1" ry="1"/><ellipse cx="1.381" cy="3.077" rx="1" ry="1"/><ellipse cx="1.819" cy="3.077" rx="1" ry="1"/></g><path fill="#FFE62E" d="M7.467 14.164h1.066l-.133-.525v-.524h.126v-.237h-.133v.118h-.085v-.118h-.133v.118h-.111v-.118h-.135v.118h-.104v-.118h-.133v.118H7.6v-.118h-.133v.237H7.6v.524z"/><path d="M8.157 14.164h-.053v-.228A.104.104 0 0 0 8 13.833a.103.103 0 0 0-.103.103v.228h-.054v-.228c0-.086.07-.154.157-.154s.157.069.157.154v.228m-.175-.568h-.314v-.255c0-.085.07-.154.157-.154s.157.07.157.154v.255zm-.26-.052h.208v-.202a.104.104 0 0 0-.104-.102.103.103 0 0 0-.104.102v.202zm.61.052h-.314v-.255c0-.085.07-.154.157-.154.086 0 .157.07.157.154v.255zm-.261-.052h.208v-.202a.103.103 0 0 0-.104-.102.103.103 0 0 0-.104.102v.202z" fill="#3E4347"/><path fill="#FFE62E" d="M4.8 14.164h1.067l-.134-.525v-.524h.127v-.237h-.134v.118h-.084v-.118h-.134v.118h-.11v-.118h-.136v.118h-.104v-.118h-.133v.118h-.092v-.118H4.8v.237h.133v.524z"/><path d="M5.49 14.164h-.053v-.228a.104.104 0 0 0-.104-.103.103.103 0 0 0-.103.103v.228h-.053v-.228c0-.086.07-.154.156-.154.087 0 .158.069.158.154v.228m-.175-.568h-.314v-.255c0-.085.07-.154.156-.154.087 0 .158.07.158.154v.255m-.261-.052h.208v-.202a.104.104 0 0 0-.104-.102.103.103 0 0 0-.104.102v.202m.61.052h-.314v-.255c0-.085.07-.154.157-.154s.157.07.157.154v.255m-.26-.052h.207v-.202a.103.103 0 0 0-.103-.102.103.103 0 0 0-.104.102v.202" fill="#3E4347"/><path fill="#FFE62E" d="M4.816 17.257h1.067l-.132-.525v-.524h.126v-.237h-.132v.118h-.086v-.118h-.133v.118h-.113v-.118H5.28v.118h-.104v-.118h-.133v.118H4.95v-.118h-.135v.237h.135v.524z"/><path d="M5.508 17.257h-.053v-.228a.104.104 0 0 0-.208 0v.228h-.053v-.228c0-.086.07-.155.157-.155s.157.07.157.155v.228m-.175-.568H5.02v-.255c0-.085.07-.154.157-.154s.157.07.157.154v.255m-.26-.052h.208v-.202a.104.104 0 0 0-.104-.102.103.103 0 0 0-.104.102v.202m.609.052h-.314v-.255c0-.085.07-.154.157-.154.086 0 .157.07.157.154v.255m-.261-.052h.208v-.202a.103.103 0 0 0-.104-.102.103.103 0 0 0-.104.102v.202" fill="#3E4347"/><path fill="#FFE62E" d="M10.133 17.322H11.2l-.133-.525v-.524h.126v-.236h-.133v.118h-.085v-.118h-.133v.118h-.111v-.118h-.135v.118h-.104v-.118h-.134v.118h-.091v-.118h-.134v.236h.134v.524z"/><path d="M10.824 17.322h-.053v-.228a.104.104 0 0 0-.208 0v.228h-.053v-.228c0-.086.07-.155.157-.155s.157.07.157.155v.228m-.174-.568h-.315V16.5c0-.086.07-.154.157-.154s.157.069.157.154v.254zm-.262-.052h.208V16.5a.104.104 0 0 0-.104-.102.103.103 0 0 0-.103.102v.202zm.61.052h-.314V16.5c0-.086.07-.154.158-.154.086 0 .156.069.156.154v.254zm-.26-.052h.208V16.5a.103.103 0 0 0-.104-.102.103.103 0 0 0-.104.102v.202z" fill="#3E4347"/><path fill="#FFE62E" d="M10.133 14.164H11.2l-.133-.525v-.524h.126v-.237h-.133v.118h-.085v-.118h-.133v.118h-.111v-.118h-.135v.118h-.104v-.118h-.134v.118h-.091v-.118h-.134v.237h.134v.524z"/><path d="M10.824 14.164h-.053v-.228a.104.104 0 0 0-.104-.103.103.103 0 0 0-.104.103v.228h-.053v-.228c0-.086.07-.154.157-.154s.157.069.157.154v.228m-.174-.568h-.315v-.255c0-.085.07-.154.157-.154s.157.07.157.154v.255zm-.262-.052h.208v-.202a.104.104 0 0 0-.104-.102.103.103 0 0 0-.103.102v.202zm.61.052h-.314v-.255c0-.085.07-.154.158-.154.086 0 .156.07.156.154v.255zm-.26-.052h.208v-.202a.103.103 0 0 0-.104-.102.103.103 0 0 0-.104.102v.202z" fill="#3E4347"/><path fill="#FFE62E" d="M6.514 20.225l.754-.742-.471-.278-.376-.371.088-.088-.17-.167-.094.092.085.084-.06.06-.084-.085-.095.094.085.082-.08.079-.085-.084-.091.094.082.084-.071.07-.087-.08-.095.09.085.084-.065.063-.085-.082-.094.091.17.168.047-.047.047-.046.377.371z"/><path d="M7.003 19.745l-.038.037-.164-.162a.105.105 0 0 0-.147 0 .102.102 0 0 0 0 .144l.164.162-.037.037-.164-.162a.152.152 0 0 1 0-.219.16.16 0 0 1 .222 0l.164.163m-.533-.283l-.223.219-.183-.18a.152.152 0 0 1 0-.22.159.159 0 0 1 .222 0l.183.181m-.222.145l.147-.144-.145-.143a.105.105 0 0 0-.147 0 .1.1 0 0 0 0 .144l.145.143m.471-.385l-.222.219-.183-.18a.152.152 0 0 1 0-.219.159.159 0 0 1 .222 0l.183.18m-.222.144l.147-.144-.145-.143a.105.105 0 0 0-.147 0 .1.1 0 0 0 0 .145l.145.142" fill="#3E4347"/><path fill="#FFE62E" d="M9.478 20.225l-.755-.742.472-.278.377-.371-.09-.088.171-.167.093.092-.087.084.063.06.085-.085.094.094-.085.082.08.079.084-.084.095.094-.086.084.074.07.086-.08.091.09-.08.084.064.063.083-.082.095.091-.173.168-.042-.047-.048-.046-.378.371z"/><path d="M8.99 19.745l.037.037.164-.162c.04-.04.106-.04.147 0a.1.1 0 0 1 0 .144l-.165.162.038.037.164-.162a.152.152 0 0 0 0-.219.159.159 0 0 0-.222 0l-.164.163m.718-.46a.159.159 0 0 1 .222 0 .152.152 0 0 1 0 .218l-.183.18-.222-.218.183-.18m.184.181a.1.1 0 0 0 0-.144.105.105 0 0 0-.146 0l-.146.143.147.144.145-.143m-.434-.423a.16.16 0 0 1 .222 0c.06.06.06.158 0 .218l-.183.18-.222-.219.183-.18m.184.182a.1.1 0 0 0 0-.144.105.105 0 0 0-.147 0l-.145.142.148.144.144-.142" fill="#3E4347"/></g></svg>