<svg xmlns="http://www.w3.org/2000/svg" viewBox="0 0 32 32"><g fill="none"><path fill="#ED4C5C" d="M24.518 2.458A15.919 15.919 0 0 0 16 0v2.459h8.518z"/><path fill="#FFF" d="M16 4.917h11.533a16.09 16.09 0 0 0-3.015-2.459H16v2.459z"/><path fill="#ED4C5C" d="M16 7.375h13.473a16.015 16.015 0 0 0-1.94-2.458H16v2.458z"/><path fill="#FFF" d="M16 9.834h14.767a15.85 15.85 0 0 0-1.294-2.459H16.001v2.46"/><path fill="#ED4C5C" d="M16 12.293h15.563a15.87 15.87 0 0 0-.797-2.458H15.999v2.458"/><path fill="#FFF" d="M16 14.751h15.947a15.88 15.88 0 0 0-.384-2.458H16.001v2.458"/><path fill="#ED4C5C" d="M31.947 14.751H16V16H0c0 .407.02.81.05 1.21h31.9c.03-.4.05-.803.05-1.21 0-.42-.022-.836-.053-1.249"/><path fill="#FFF" d="M.427 19.669h31.147c.188-.798.315-1.62.378-2.458H.052c.063.838.19 1.66.377 2.458"/><path fill="#ED4C5C" d="M1.218 22.127H30.78c.327-.79.59-1.61.79-2.458H.423c.199.847.462 1.669.79 2.458"/><path fill="#FFF" d="M2.502 24.587h26.996c.495-.777.927-1.598 1.284-2.458H1.219c.358.86.789 1.68 1.284 2.458"/><path fill="#ED4C5C" d="M4.43 27.045h23.14a16.056 16.056 0 0 0 1.929-2.46H2.502a16.152 16.152 0 0 0 1.928 2.46"/><path fill="#FFF" d="M7.422 29.504h17.157a16.115 16.115 0 0 0 2.992-2.458H4.429c.893.934 1.897 1.76 2.993 2.458"/><path fill="#ED4C5C" d="M16 32c3.157 0 6.098-.919 8.578-2.497H7.422A15.921 15.921 0 0 0 16 32z"/><path fill="#428BC1" d="M7.483 2.458a16.087 16.087 0 0 0-6.25 7.376 16.007 16.007 0 0 0-1.179 4.917A16.13 16.13 0 0 0 .002 16h16V0c-3.133 0-6.052.903-8.52 2.458"/><path d="M12.267.533l.252.79h.814l-.659.523.254.808-.661-.48-.66.493.254-.823-.661-.52h.814zm2.133 3.2l.252.79h.815l-.66.523.254.808-.661-.478-.66.49.255-.822-.662-.52h.815zm-4.267 0l.253.79h.814l-.66.523.255.808-.662-.478-.659.49.252-.822-.66-.52h.815zm2.134 3.2l.252.79h.814l-.659.523.254.808-.661-.478-.66.49.254-.822-.661-.52h.814zM8 6.933l.252.79h.815l-.66.523.252.808L8 8.576l-.66.49.253-.822-.66-.52h.815zm-4.267 0l.253.79H4.8l-.66.523.253.808-.66-.478-.659.49.252-.822-.66-.52h.815zm10.667 3.2l.252.79h.815l-.66.523.254.808-.661-.478-.66.49.255-.822-.662-.52h.815zm-4.267 0l.253.79h.814l-.66.523.255.808-.662-.478-.659.49.252-.822-.66-.52h.815zm-4.266 0l.252.79h.814l-.659.523.252.808-.66-.478-.659.49.252-.822-.659-.52h.814zm6.4 3.2l.252.79h.814l-.659.523.254.808-.661-.478-.66.49.254-.822-.661-.52h.814zm-4.267 0l.252.79h.815l-.66.523.252.808L8 14.976l-.66.49.253-.822-.66-.52h.815zm-4.267 0l.253.79H4.8l-.66.523.253.808-.66-.478-.659.49.252-.822-.66-.52h.815zm1.474-7.466l.66-.493.659.48-.252-.808.66-.523h-.815l-.252-.79-.253.79h-.758l-.025.025.628.497-.252.822m-4.267 6.4l.66-.493.66.48-.253-.808.66-.523h-.815l-.252-.79-.252.79h-.52a6.664 6.664 0 0 0-.063.184l.428.337-.252.823" fill="#FFF"/></g></svg>