<svg xmlns="http://www.w3.org/2000/svg" xmlns:xlink="http://www.w3.org/1999/xlink" viewBox="0 0 32 32"><defs><circle id="a" cx="16" cy="16" r="16"/></defs><g fill="none" fill-rule="evenodd"><mask id="b" fill="#fff"><use xlink:href="#a"/></mask><use fill="#D8D8D8" xlink:href="#a"/><g mask="url(#b)" fill-rule="nonzero"><path fill="#DE2910" d="M-8 0h49v32H-8z"/><path fill="#FFF" d="M16.498 15.995c-5.73-2.372-3.19-9.684 2.29-9.316-1.108.558-1.269 1.6-.636 2.564.71 1.08-.065 2.819-1.024 3.241-1.575.695-1.89 2.547-.63 3.511z"/><path fill="#DE2910" d="M16.188 10.716l-.322.495-.117-.576-.581-.148.524-.287-.037-.587.44.4.559-.216-.251.534.38.454zm.342 5.218c-.693-.349-1.252-1.075-1.495-1.943a3.628 3.628 0 0 1 .44-2.936l-.12-.074a3.767 3.767 0 0 0-.457 3.046c.258.919.829 1.659 1.568 2.03l.064-.123z"/><path fill="#FFF" d="M16.596 16.006c.485-6.184 8.224-6.027 9.568-.701-.873-.882-1.914-.713-2.636.187-.808 1.009-2.7.81-3.398.028-1.148-1.283-3.007-1.011-3.534.486z"/><path fill="#DE2910" d="M21.521 14.08l-.57-.154.512-.29-.04-.598.435.41.547-.216-.244.542.378.464-.586-.073-.313.502zm-4.857 1.938c.118-.767.636-1.523 1.386-2.023a3.628 3.628 0 0 1 2.928-.489l.033-.137a3.767 3.767 0 0 0-3.038.507c-.794.529-1.321 1.3-1.446 2.118l.137.024z"/><path fill="#FFF" d="M16.561 16.008c6.031-1.449 8.274 5.96 3.623 8.884.57-1.103.087-2.04-.992-2.45-1.21-.456-1.604-2.318-1.077-3.223.866-1.488.033-3.171-1.554-3.21z"/><path fill="#DE2910" d="M19.915 20.097l-.03-.59.433.398.557-.223-.255.54.374.454-.59-.065-.326.503-.11-.58-.575-.142zm-3.344-4.02c.766-.125 1.645.134 2.352.693a3.628 3.628 0 0 1 1.37 2.633l.14-.01a3.767 3.767 0 0 0-1.421-2.733c-.748-.592-1.645-.855-2.461-.721l.02.138z"/><path fill="#FFF" d="M16.442 16c3.242 5.287-3.111 9.71-7.33 6.19 1.226.2 1.968-.548 2.023-1.7.061-1.291 1.71-2.242 2.733-2.02 1.683.363 3.027-.95 2.574-2.47z"/><path fill="#DE2910" d="M13.59 20.453l.552-.212-.245.536.384.46-.593-.075-.315.496-.122-.582-.578-.154.517-.284-.042-.591zm2.79-4.423c.356.69.38 1.606.067 2.451a3.628 3.628 0 0 1-2.081 2.116l.054.13a3.767 3.767 0 0 0 2.16-2.195c.331-.895.304-1.829-.075-2.564l-.125.062z"/><path fill="#FFF" d="M16.403 15.991c-4.027 4.718-10.196.042-8.153-5.057.188 1.227 1.13 1.702 2.243 1.398 1.246-.34 2.66.933 2.766 1.975.173 1.713 1.837 2.585 3.144 1.684z"/><path fill="#DE2910" d="M11.286 14.655l.372.46-.585-.068-.32.508-.11-.588-.57-.146.516-.295-.033-.598.43.404.55-.223zm5.069 1.287c-.546.551-1.41.858-2.31.821a3.628 3.628 0 0 1-2.656-1.325l-.108.091a3.767 3.767 0 0 0 2.756 1.376c.953.039 1.833-.275 2.415-.863l-.097-.1z"/></g></g></svg>