<svg xmlns="http://www.w3.org/2000/svg" viewBox="0 0 32 24"><g fill="none" fill-rule="evenodd"><path d="M1 0h29.113v23.929H1z"/><path fill="#1A1A1A" fill-rule="nonzero" d="M10.995 20.874v-1.19a.704.704 0 0 0-.744-.752.734.734 0 0 0-.667.337.696.696 0 0 0-.626-.337.627.627 0 0 0-.556.282v-.234H7.99v1.894h.416v-1.05a.442.442 0 0 1 .464-.503c.274 0 .413.179.413.5v1.053H9.7v-1.05a.446.446 0 0 1 .464-.503c.281 0 .416.179.416.5v1.053h.415zm2.32-.946v-.946H12.9v.23a.718.718 0 0 0-.595-.278.992.992 0 1 0 0 1.984.718.718 0 0 0 .595-.278v.23h.412l.004-.942zm-1.533 0a.573.573 0 1 1 .575.607.567.567 0 0 1-.579-.607h.004zm10.348-.992c.136 0 .27.025.397.076a.96.96 0 0 1 .538.526c.103.254.103.538 0 .793a.958.958 0 0 1-.538.525 1.123 1.123 0 0 1-.814 0 .98.98 0 0 1-.533-.525 1.053 1.053 0 0 1 0-.794.968.968 0 0 1 .533-.525c.131-.055.271-.082.413-.082l.004.006zm0 .397a.615.615 0 0 0-.236.044.557.557 0 0 0-.314.323.688.688 0 0 0 0 .492.555.555 0 0 0 .313.323.645.645 0 0 0 .67-.125.575.575 0 0 0 .124-.198.688.688 0 0 0 0-.492.575.575 0 0 0-.125-.199.567.567 0 0 0-.198-.124.615.615 0 0 0-.238-.056l.004.012zm-6.573.595c0-.595-.37-.992-.899-.992a.992.992 0 0 0 .028 1.984c.282.01.558-.085.775-.266l-.198-.306a.902.902 0 0 1-.551.199.526.526 0 0 1-.568-.464h1.407c.006-.05.006-.1.006-.155zm-1.41-.167a.488.488 0 0 1 .497-.458.47.47 0 0 1 .48.46l-.978-.002zm3.145-.297a1.22 1.22 0 0 0-.595-.163c-.226 0-.36.083-.36.222 0 .14.142.163.32.187l.199.028c.412.059.662.234.662.567 0 .333-.317.619-.862.619a1.367 1.367 0 0 1-.82-.246l.199-.322c.182.135.404.205.63.199.282 0 .433-.084.433-.23 0-.107-.107-.167-.333-.199l-.199-.027c-.424-.06-.654-.25-.654-.56 0-.377.31-.607.793-.607.271-.009.539.06.772.199l-.185.333zm1.984-.107h-.673v.855c0 .198.068.317.274.317a.762.762 0 0 0 .365-.107l.119.353a.968.968 0 0 1-.516.147c-.488 0-.658-.262-.658-.702v-.863h-.385v-.377h.385v-.575h.416v.575h.673v.377zm1.426-.425c.1 0 .2.018.293.052l-.127.396a.67.67 0 0 0-.257-.047c-.27 0-.397.174-.397.488v1.061H19.8v-1.894h.409v.23a.56.56 0 0 1 .5-.278l-.008-.008zm2.852 1.666a.198.198 0 0 1 .137.054.184.184 0 0 1-.061.305.186.186 0 0 1-.076.016.198.198 0 0 1-.178-.115.186.186 0 0 1 .041-.206.198.198 0 0 1 .127-.054h.01zm0 .336a.14.14 0 0 0 .103-.044.147.147 0 0 0-.103-.25.149.149 0 0 0-.105.044.147.147 0 0 0 0 .198.147.147 0 0 0 .105.044v.008zm.012-.236a.08.08 0 0 1 .052.015.05.05 0 0 1 .017.042.048.048 0 0 1-.014.036.07.07 0 0 1-.041.018l.057.065h-.045l-.054-.065h-.018v.065h-.037v-.182l.083.006zm-.044.033v.048h.044a.042.042 0 0 0 .024 0 .02.02 0 0 0 0-.018.02.02 0 0 0 0-.018.042.042 0 0 0-.024 0l-.044-.012z"/><g fill-rule="nonzero"><path fill="#7673C0" d="M12.433 4.528h6.248v11.228h-6.248z"/><path fill="#EB001B" d="M12.83 10.143a7.129 7.129 0 0 1 2.727-5.615 7.14 7.14 0 1 0 0 11.229 7.129 7.129 0 0 1-2.728-5.614z"/><path fill="#00A1DF" d="M27.108 10.143a7.14 7.14 0 0 1-11.551 5.614 7.14 7.14 0 0 0 0-11.229 7.14 7.14 0 0 1 11.553 5.613l-.002.002z"/></g></g></svg>