<svg xmlns="http://www.w3.org/2000/svg" xmlns:xlink="http://www.w3.org/1999/xlink" width="48" height="48"><defs><ellipse id="a" cx="23.938" cy="24" rx="23.938" ry="24"/></defs><g fill="none" fill-rule="evenodd"><mask id="b" fill="#fff"><use xlink:href="#a"/></mask><use fill="#E6EAFE" xlink:href="#a"/><g fill="#627AFB" fill-rule="nonzero" mask="url(#b)"><path d="M21.889 28.444v-1.11h-7.767l-.01 4.444c0 1.233.988 2.222 2.221 2.222H31.89a2.215 2.215 0 0 0 2.222-2.222v-4.445h-7.778v1.111H21.89zm11.111-10h-4.456v-2.222L26.322 14h-4.444l-2.222 2.222v2.222h-4.434c-1.222 0-2.222 1-2.222 2.223V24c0 1.233.989 2.222 2.222 2.222h6.667V24h4.444v2.222H33c1.222 0 2.222-1 2.222-2.222v-3.333c0-1.223-1-2.223-2.222-2.223zm-6.667 0H21.89v-2.222h4.444v2.222z"/></g></g></svg>