<svg xmlns="http://www.w3.org/2000/svg" viewBox="0 0 32 24"><g fill="none" fill-rule="evenodd"><path fill="#FFF" fill-rule="nonzero" d="M1 2h30v20H1z"/><path fill="#F7B600" fill-rule="nonzero" d="M1 19.143h30V22H1z"/><path fill="#1A1F71" d="M1 2h30v2.857H1z"/><path fill="#1A1F71" fill-rule="nonzero" d="M12.298 8.141l-3.207 7.644H6.993L5.42 9.673c-.1-.383-.181-.504-.464-.664A7.95 7.95 0 0 0 3 8.363l.041-.222h3.368c.455.002.84.336.907.787l.827 4.416L10.2 8.14h2.098zm8.208 5.143c0-2.017-2.783-2.138-2.762-3.026 0-.282.262-.564.846-.645a3.77 3.77 0 0 1 1.957.343l.343-1.613A5.159 5.159 0 0 0 19.034 8c-1.957 0-3.328 1.048-3.348 2.521-.02 1.109.988 1.714 1.734 2.076.747.364 1.029.626 1.029.949 0 .504-.625.746-1.19.746a4.057 4.057 0 0 1-2.037-.483l-.362 1.673a5.62 5.62 0 0 0 2.197.404c2.077.019 3.429-1.01 3.449-2.602zm5.155 2.5h1.835l-1.593-7.643h-1.694a.902.902 0 0 0-.847.565l-2.985 7.079h2.077l.404-1.15H25.4l.262 1.15zm-2.22-2.702l1.05-2.864.605 2.864h-1.654zM15.114 8.14l-1.633 7.644h-1.977l1.634-7.644h1.976z"/></g></svg>