<svg xmlns="http://www.w3.org/2000/svg" viewBox="0 0 56 48"><path fill="#627AFB" fill-rule="evenodd" d="M22.102 26.563c0 2.171-.25 4.097-.75 5.777-.5 1.68-1.22 3.094-2.157 4.242a9.075 9.075 0 0 1-3.445 2.613c-1.36.594-2.914.89-4.664.89-1.734 0-3.285-.296-4.652-.89a9.252 9.252 0 0 1-3.48-2.613C2 35.434 1.27 34.02.761 32.34.254 30.66 0 28.734 0 26.562V18.57c0-2.172.25-4.097.75-5.777.5-1.68 1.223-3.098 2.168-4.254a9.211 9.211 0 0 1 3.469-2.637C7.754 5.301 9.305 5 11.039 5c1.75 0 3.309.3 4.676.902a9.211 9.211 0 0 1 3.469 2.637c.945 1.156 1.668 2.574 2.168 4.254.5 1.68.75 3.605.75 5.777v7.992zm-17.743-.868L17.65 15.5c-.25-2.266-.91-3.988-1.981-5.168-1.07-1.18-2.613-1.77-4.629-1.77-2.281 0-3.965.77-5.05 2.31-1.087 1.538-1.63 3.784-1.63 6.737v8.086zm13.383-6.047L4.477 29.797c.265 2.203.945 3.883 2.039 5.039 1.093 1.156 2.617 1.734 4.57 1.734 2.297 0 3.98-.78 5.05-2.343 1.071-1.563 1.606-3.813 1.606-6.75v-7.829zm25.805 19.97H39.21V11.022l-8.93 3.399V10.46l12.914-4.969h.352v34.125z"/></svg>