<svg xmlns="http://www.w3.org/2000/svg" viewBox="0 0 56 48"><path fill="#627AFB" fill-rule="evenodd" d="M22.102 26.563c0 2.171-.25 4.097-.75 5.777-.5 1.68-1.22 3.094-2.157 4.242a9.075 9.075 0 0 1-3.445 2.613c-1.36.594-2.914.89-4.664.89-1.734 0-3.285-.296-4.652-.89a9.252 9.252 0 0 1-3.48-2.613C2 35.434 1.27 34.02.761 32.34.254 30.66 0 28.734 0 26.562V18.57c0-2.172.25-4.097.75-5.777.5-1.68 1.223-3.098 2.168-4.254a9.211 9.211 0 0 1 3.469-2.637C7.754 5.301 9.305 5 11.039 5c1.75 0 3.309.3 4.676.902a9.211 9.211 0 0 1 3.469 2.637c.945 1.156 1.668 2.574 2.168 4.254.5 1.68.75 3.605.75 5.777v7.992zm-17.743-.868L17.65 15.5c-.25-2.266-.91-3.988-1.981-5.168-1.07-1.18-2.613-1.77-4.629-1.77-2.281 0-3.965.77-5.05 2.31-1.087 1.538-1.63 3.784-1.63 6.737v8.086zm13.383-6.047L4.477 29.797c.265 2.203.945 3.883 2.039 5.039 1.093 1.156 2.617 1.734 4.57 1.734 2.297 0 3.98-.78 5.05-2.343 1.071-1.563 1.606-3.813 1.606-6.75v-7.829zm32.672 19.97h-22.36V36.5l11.18-12.422c1-1.11 1.836-2.094 2.508-2.953.672-.86 1.211-1.652 1.617-2.379.407-.726.696-1.414.868-2.062a7.788 7.788 0 0 0 .257-2.004c0-.844-.136-1.637-.41-2.38a5.52 5.52 0 0 0-1.195-1.933 5.741 5.741 0 0 0-1.899-1.3c-.742-.32-1.582-.481-2.52-.481-1.14 0-2.128.164-2.964.492-.836.328-1.531.793-2.086 1.395-.555.601-.969 1.332-1.242 2.191-.273.86-.41 1.82-.41 2.883h-4.36c0-1.438.25-2.793.75-4.067a9.748 9.748 0 0 1 2.168-3.34c.946-.953 2.102-1.71 3.47-2.273 1.366-.562 2.925-.844 4.675-.844 1.61 0 3.059.239 4.348.715 1.289.477 2.378 1.137 3.27 1.98a8.592 8.592 0 0 1 2.05 3c.476 1.157.715 2.415.715 3.774 0 1.016-.172 2.02-.516 3.012a15.47 15.47 0 0 1-1.394 2.941 24.858 24.858 0 0 1-2.04 2.871 66.512 66.512 0 0 1-2.449 2.825l-9.164 9.937h17.133v3.54z"/></svg>