<svg xmlns="http://www.w3.org/2000/svg" viewBox="0 0 56 48"><path fill="#627AFB" fill-rule="evenodd" d="M22.5 26.945c0 2.172-.25 4.098-.75 5.778-.5 1.68-1.219 3.093-2.156 4.242a9.075 9.075 0 0 1-3.446 2.613c-1.359.594-2.914.89-4.664.89-1.734 0-3.285-.296-4.652-.89a9.252 9.252 0 0 1-3.48-2.613c-.954-1.149-1.684-2.563-2.192-4.242-.508-1.68-.762-3.606-.762-5.778v-7.992c0-2.172.25-4.098.75-5.777.5-1.68 1.223-3.098 2.168-4.254a9.211 9.211 0 0 1 3.47-2.637c1.366-.601 2.917-.902 4.652-.902 1.75 0 3.308.3 4.675.902a9.211 9.211 0 0 1 3.469 2.637c.945 1.156 1.668 2.574 2.168 4.254.5 1.68.75 3.605.75 5.777v7.992zm-17.742-.867l13.289-10.195c-.25-2.266-.91-3.988-1.98-5.168-1.07-1.18-2.614-1.77-4.63-1.77-2.28 0-3.964.77-5.05 2.309-1.086 1.539-1.63 3.785-1.63 6.738v8.086zm13.383-6.047L4.875 30.18c.266 2.203.945 3.882 2.04 5.039 1.093 1.156 2.616 1.734 4.57 1.734 2.296 0 3.98-.781 5.05-2.344 1.07-1.562 1.606-3.812 1.606-6.75v-7.828zm16.804.82h3.094c1.094 0 2.059-.148 2.895-.445.836-.297 1.539-.703 2.109-1.218a5.076 5.076 0 0 0 1.3-1.852c.298-.719.446-1.508.446-2.367 0-1.985-.508-3.48-1.523-4.489-1.016-1.007-2.5-1.511-4.453-1.511-.922 0-1.762.136-2.52.41a5.449 5.449 0 0 0-1.945 1.184 5.36 5.36 0 0 0-1.254 1.851c-.297.719-.446 1.523-.446 2.414H28.29a8.993 8.993 0 0 1 2.906-6.668c.922-.851 2.028-1.523 3.317-2.015 1.289-.493 2.722-.739 4.3-.739 1.532 0 2.93.207 4.196.621 1.265.414 2.351 1.028 3.258 1.84.906.813 1.609 1.82 2.109 3.024.5 1.203.75 2.593.75 4.171 0 .657-.102 1.336-.305 2.04a7.914 7.914 0 0 1-.937 2.05 8.821 8.821 0 0 1-1.63 1.875c-.663.586-1.456 1.075-2.378 1.465 1.11.36 2.035.828 2.777 1.406.743.579 1.336 1.227 1.782 1.946.445.719.757 1.476.937 2.273.18.797.27 1.586.27 2.367 0 1.594-.274 3.008-.82 4.243a8.91 8.91 0 0 1-2.274 3.128c-.969.852-2.113 1.5-3.434 1.946-1.32.445-2.746.668-4.277.668-1.5 0-2.91-.211-4.23-.633-1.32-.422-2.465-1.04-3.434-1.852a8.94 8.94 0 0 1-2.309-2.976c-.57-1.172-.855-2.508-.855-4.008h4.336c0 .89.152 1.703.457 2.438a5.22 5.22 0 0 0 1.3 1.874c.563.516 1.247.915 2.051 1.196.805.281 1.7.422 2.684.422.984 0 1.875-.13 2.672-.387a5.296 5.296 0 0 0 2.039-1.184c.562-.53.996-1.191 1.3-1.98.305-.79.458-1.723.458-2.8 0-1.063-.176-1.981-.528-2.755a5.263 5.263 0 0 0-1.476-1.933c-.633-.516-1.399-.899-2.297-1.149-.899-.25-1.887-.375-2.965-.375h-3.094v-3.515z"/></svg>