<svg xmlns="http://www.w3.org/2000/svg" viewBox="0 0 70 70"><g fill="none" fill-rule="evenodd"><path d="M.252 9.335h61.56v50.489H.252z"/><g fill-rule="nonzero"><path fill="#000" d="M19.184 54.202v-2.516c0-.964-.587-1.593-1.594-1.593-.503 0-1.048.168-1.426.713-.293-.462-.713-.713-1.342-.713-.419 0-.838.126-1.174.587v-.503h-.88v4.025h.88V51.98c0-.713.378-1.049.965-1.049s.88.378.88 1.049v2.222h.881V51.98c0-.713.42-1.049.965-1.049.587 0 .88.378.88 1.049v2.222h.965zm13.041-4.025H30.8V48.96h-.881v1.216h-.797v.796h.797v1.846c0 .922.377 1.467 1.384 1.467.377 0 .797-.126 1.09-.293l-.252-.755a1.38 1.38 0 0 1-.754.21c-.42 0-.587-.252-.587-.671v-1.804h1.425v-.796zm7.465-.084c-.504 0-.839.251-1.049.587v-.503h-.88v4.025h.88v-2.264c0-.671.294-1.048.839-1.048.168 0 .377.041.545.083l.252-.838c-.168-.042-.42-.042-.587-.042zm-11.28.42c-.42-.294-1.007-.42-1.636-.42-1.007 0-1.678.503-1.678 1.3 0 .67.504 1.048 1.384 1.174l.42.042c.46.084.713.21.713.42 0 .293-.336.502-.923.502s-1.048-.21-1.342-.419l-.42.671c.462.336 1.091.503 1.72.503 1.174 0 1.845-.545 1.845-1.3 0-.713-.545-1.09-1.384-1.216l-.419-.042c-.377-.042-.671-.126-.671-.377 0-.294.294-.461.755-.461.503 0 1.006.21 1.258.335l.377-.713zm23.399-.42c-.503 0-.839.251-1.049.587v-.503h-.88v4.025h.88v-2.264c0-.671.294-1.048.84-1.048.167 0 .376.041.544.083l.252-.838c-.168-.042-.42-.042-.587-.042zM40.57 52.19c0 1.216.839 2.096 2.139 2.096.587 0 1.006-.126 1.426-.461l-.42-.713c-.335.252-.67.377-1.048.377-.713 0-1.216-.503-1.216-1.3 0-.754.503-1.258 1.216-1.3.377 0 .713.126 1.048.378l.42-.713c-.42-.335-.839-.461-1.426-.461-1.3 0-2.139.88-2.139 2.097zm8.136 0v-2.013h-.881v.503c-.294-.378-.713-.587-1.258-.587-1.132 0-2.013.88-2.013 2.097 0 1.216.88 2.096 2.013 2.096.587 0 1.006-.21 1.258-.587v.503h.88V52.19zm-3.23 0c0-.713.462-1.3 1.217-1.3.713 0 1.216.545 1.216 1.3 0 .712-.503 1.3-1.216 1.3-.755-.042-1.216-.588-1.216-1.3zm-10.525-2.097c-1.174 0-2.013.838-2.013 2.097 0 1.258.839 2.096 2.055 2.096.587 0 1.174-.167 1.635-.545l-.419-.629c-.335.252-.755.42-1.174.42-.545 0-1.09-.252-1.216-.965h2.977v-.336c.042-1.3-.713-2.138-1.845-2.138zm0 .755c.545 0 .923.335 1.006.964h-2.096c.084-.545.461-.964 1.09-.964zM56.8 52.19v-3.607h-.88v2.097c-.294-.378-.714-.587-1.259-.587-1.132 0-2.013.88-2.013 2.097 0 1.216.881 2.096 2.013 2.096.587 0 1.007-.21 1.258-.587v.503h.881V52.19zm-3.229 0c0-.713.461-1.3 1.216-1.3.713 0 1.216.545 1.216 1.3 0 .712-.503 1.3-1.216 1.3-.755-.042-1.216-.588-1.216-1.3zm-29.438 0v-2.013h-.88v.503c-.294-.378-.714-.587-1.259-.587-1.132 0-2.013.88-2.013 2.097 0 1.216.881 2.096 2.013 2.096.587 0 1.007-.21 1.258-.587v.503h.88V52.19zm-3.271 0c0-.713.461-1.3 1.216-1.3.713 0 1.216.545 1.216 1.3 0 .712-.503 1.3-1.216 1.3-.755-.042-1.216-.588-1.216-1.3z"/><path fill="#FF5F00" d="M28.116 19.606h13.209v23.735H28.116z"/><path fill="#EB001B" d="M28.954 31.474c0-4.823 2.265-9.1 5.745-11.868a15.004 15.004 0 0 0-9.309-3.229c-8.345 0-15.096 6.752-15.096 15.097 0 8.345 6.751 15.096 15.096 15.096 3.522 0 6.751-1.216 9.31-3.229a15.074 15.074 0 0 1-5.746-11.867z"/><path fill="#F79E1B" d="M59.147 31.474c0 8.345-6.751 15.096-15.096 15.096a15.004 15.004 0 0 1-9.31-3.229 15.01 15.01 0 0 0 5.745-11.867c0-4.823-2.264-9.1-5.745-11.868a15.004 15.004 0 0 1 9.31-3.229c8.345 0 15.096 6.794 15.096 15.097z"/></g></g></svg>