<svg xmlns="http://www.w3.org/2000/svg" viewBox="0 0 70 70"><g fill="#212629"><path d="M47.673 48.167c-.057.054-.111.11-.111.11a18.676 18.676 0 0 1-10.453 5.204s-.22.025-.408.049l.433-.289a20.465 20.465 0 0 0 4.887-5.047l.018-.027h5.634zm-6.773 0l-.075.102a20.908 20.908 0 0 1-4.68 4.597s-.75.504-1.017.68v-5.379H40.9zm-6.636 0v5.379c-.163-.11-1.016-.678-1.017-.68a20.924 20.924 0 0 1-4.68-4.597l-.075-.102h5.772zm-6.91 0l.019.027c1.267 1.878 2.913 3.583 4.889 5.068l.36.234-.38-.052c-3.948-.54-7.549-2.327-10.411-5.166 0 0-.055-.057-.11-.11h5.633zm24.541-6.555a18.797 18.797 0 0 1-3.33 5.589l-.02.022h-5.91l.056-.097a17.855 17.855 0 0 0 2.095-5.462s.006-.025.01-.052h7.1zm-8.043 0c-.01.038-.018.078-.018.078a16.807 16.807 0 0 1-2.275 5.505l-.018.028h-6.413v-5.61h8.724zm-9.588 0v5.611H27.85l-.018-.028a16.823 16.823 0 0 1-2.274-5.505l-.018-.078h8.723zm-9.669 0l.011.052a17.834 17.834 0 0 0 2.151 5.56h-5.91l-.019-.023a18.762 18.762 0 0 1-3.297-5.502l-.034-.087h7.098zm27.632-12.578l.014.045c.594 1.86.897 3.807.902 5.785a19.09 19.09 0 0 1-.912 5.815l-.013.045H17.172a19.116 19.116 0 0 1-.924-5.86 19.14 19.14 0 0 1 .9-5.785l.014-.045h35.065zm-3.681-6.555l.019.022a18.78 18.78 0 0 1 3.33 5.589h-7.098a17.86 17.86 0 0 0-2.105-5.514l-.056-.097h5.91zm-7.005 0a16.795 16.795 0 0 1 2.31 5.61h-8.723v-5.61h6.413zm-7.277 0v5.61H25.54c.01-.038.018-.077.018-.077a16.811 16.811 0 0 1 2.274-5.504l.018-.03h6.413zm-7.507 0l-.056.097a17.838 17.838 0 0 0-2.095 5.463l-.01.05h-7.099l.034-.087a18.78 18.78 0 0 1 3.297-5.501l.02-.022h5.91zm15.264-.971c-1.268-1.878-2.913-3.583-4.89-5.068-.002 0-.194-.125-.36-.234l.38.052c3.948.54 7.549 2.327 10.41 5.167l.112.11h-5.634l-.018-.027zm-6.893-5.35c.164.107 1.02.678 1.02.678a20.951 20.951 0 0 1 4.752 4.699h-5.772v-5.378zm-6.56 5.275a20.97 20.97 0 0 1 4.68-4.598s.75-.502 1.016-.678v5.378h-5.772l.076-.102zm-6.737-.008a18.666 18.666 0 0 1 10.452-5.203l.409-.05-.431.288a20.459 20.459 0 0 0-4.888 5.048l-.02.027H21.72l.11-.11zm12.737-6.274c-10.615.07-19.25 8.914-19.25 19.713 0 10.873 8.693 19.72 19.376 19.72 10.683 0 19.376-8.847 19.376-19.72 0-10.8-8.635-19.643-19.25-19.713h-.252z"/><path d="M38.417 30.85c-.397.133-.504.633-.762 1.497l-1.411 4.982c-.273.993-.267 1.288-.109 1.501l.002.098h-2.36l-.002-.098c.372-.187.448-.455.74-1.434l1.41-4.962c.269-.97.334-1.324.131-1.58v-.097h2.36l.001.094zm-20.068 5.997c.145 1.164.753 1.743 2.065 1.663.918-.056 1.383-.722 1.387-1.43.004-.584-.35-1.077-.998-1.546l-.382-.256c-.801-.572-1.518-1.178-1.512-2.21.01-1.467 1.186-2.39 2.757-2.461a5.3 5.3 0 0 1 1.475.16c.23.06.54.164.668.207l-.37 1.432-.105.001c-.201-.876-.57-1.367-1.76-1.27-.835.07-1.23.753-1.233 1.337-.004.608.352.99 1.025 1.432l.382.243c.877.582 1.628 1.196 1.622 2.283-.011 1.627-1.264 2.649-3.106 2.65-1.06 0-2.042-.362-2.41-.694.016-.15.22-.843.394-1.536l.1-.005zm26.99-6.091c-.109.323-.303.945-.459 1.436h-.095c-.376-.994-1.284-.864-1.927-.864l-.068-.001c-.444 0-.567.103-.68.526l-.717 2.648h.241c1.091 0 1.853.1 2.164-.332h.096l-.416 1.496h-.095c-.204-.664-.973-.593-1.932-.594h-.228l-.643 2.253c-.236.842-.315 1.274-.11 1.499l.001.106-2.363.004v-.1c.412-.163.495-.54.77-1.48l1.418-5.007c.26-.91.31-1.233.11-1.493l-.003-.097h4.936zm6.47 0c-.158.465-.294.922-.468 1.437l-.097-.001c-.363-.983-1.34-.865-1.766-.865h-.103l-1.702 6.009c-.227.89-.32 1.265-.104 1.492l-.002.102h-2.308l-.003-.102c.402-.193.495-.602.753-1.506l1.709-5.995h-.17c-.553 0-1.433-.087-2.078.866l-.107-.001c.146-.416.305-.923.48-1.436h5.966zm-16.889.1c-.341.247-.54.656-.953 1.443-.7 1.325-3.153 6.269-3.338 6.633h-.886l-.49-5.152h-.038l-2.745 5.152h-.732l-.675-6.58c-.084-.772-.127-1.276-.379-1.503l.003-.094h2.284v.094c-.278.304-.347.634-.282 1.403l.382 3.913h.025l2.864-5.337h.644l.496 5.348h.032a529.623 529.623 0 0 0 2.04-4.025c.477-.955.291-1.172.227-1.295v-.102l1.523.003-.001.1z"/></g></svg>