<svg xmlns="http://www.w3.org/2000/svg" viewBox="0 0 32 32"><g fill="none" fill-rule="evenodd"><circle cx="16" cy="16" r="16" fill="#E5353E"/><path fill="#FFF" d="M12.323 9.525a1.224 1.224 0 0 1 1.762-.657L16.245 10h5.089c.736 0 1.333.599 1.333 1.332v9.336c0 .736-.6 1.332-1.334 1.332H10.667a1.334 1.334 0 0 1-1.334-1.332V12c0-1.104.894-2 1.997-2h.818l.175-.475zM18.663 16a1.334 1.334 0 0 0 0 2.667h2.67V16h-2.67zm-5.116-5.908l-.962 2.575h5.877l-4.915-2.575zm-2.88 10.576l10.666-.001V20h-2.67a2.667 2.667 0 0 1 0-5.333h2.67V14H11.33c-.232 0-.456-.04-.663-.113v6.78zm10.666-9.336H18.79l2.544 1.333v-1.333zm-10.003.001a.667.667 0 1 0-.156 1.315l.483-1.315h-.327zM18.667 18a.667.667 0 1 1 0-1.333.667.667 0 0 1 0 1.333z"/></g></svg>