<svg xmlns="http://www.w3.org/2000/svg" viewBox="0 0 32 32"><g fill="none" fill-rule="evenodd"><rect width="32" height="32" fill="#FF8D24" fill-rule="nonzero" rx="16"/><path fill="#FFF" d="M18.715 19.241a.418.418 0 0 0-.336.14c-.187.233-.103.64.185.892a.75.75 0 0 0 .483.176c.18 0 .332-.068.425-.191.167-.225.07-.543-.245-.81a.807.807 0 0 0-.512-.207m1.576-1.164c-.14-.041-.245-.01-.296.084-.078.143-.02.425.137.671.16.25.295.376.403.376.037 0 .07-.015.096-.045.06-.069.08-.213.054-.396-.025-.186-.14-.57-.394-.69m3.121 5.657c.145.18-.075.362-.239.216-1.636-1.45-3.012-1.862-4.372-1.919-.723-.03-1.44.04-2.191.106a50.994 50.994 0 0 1-.655.054 7.491 7.491 0 0 1-.805.043 7.24 7.24 0 0 1-3.591-.934 6.836 6.836 0 0 1-2.615-2.581A7.074 7.074 0 0 1 8 15.143c0-1.283.317-2.49.943-3.59a6.921 6.921 0 0 1 2.585-2.607A6.974 6.974 0 0 1 15.055 8c1.309 0 2.532.314 3.635.934a6.884 6.884 0 0 1 2.623 2.59 7.076 7.076 0 0 1 .953 3.585 7.374 7.374 0 0 1-.255 1.928l-.006-.003c-.127.406-.363.981-.802 1.72-.047.077-.074.018-.08-.025-.153-1.086-.629-1.911-1.467-2.444l-.041-.026a3.666 3.666 0 0 0-.44-.23 4.532 4.532 0 0 0-.647-.227c-.142-.038-.46-.022-.344-.136.047-.047.733-.058 1.522-.007l.046.002a5.82 5.82 0 0 0 .022-.509c0-1.355-.448-2.46-1.37-3.378-.922-.918-2-1.365-3.297-1.365-1.327 0-2.403.447-3.29 1.367-.891.924-1.325 2.02-1.325 3.35 0 1.327.446 2.418 1.362 3.335.917.918 1.98 1.364 3.253 1.364.061 0 .122-.002.182-.004l-.004-.046c-.073-.935-.088-1.712.103-1.399.068.111.136.216.203.316a6.748 6.748 0 0 0 .784.98c.904.919 1.795 1.145 2.742 1.378l.06.015c.155.038.311.077.47.12 1.125.3 2.343.785 3.765 2.55"/></g></svg>