<svg xmlns="http://www.w3.org/2000/svg" viewBox="0 0 32 32"><g fill="none" fill-rule="evenodd"><rect width="32" height="32" fill="#0080DE" fill-rule="nonzero" rx="16"/><g fill="#FFF"><path d="M15.79 8.038a7.64 7.64 0 0 1 3.38.786c.161.076.321.16.482.253l-.71.638-1.068-1.107-1.801 1.612-1.07-1.172-3.356 3.035 2.151 2.379-.845.746 2.119 2.383-.84.744 3.027 3.382 1.798-1.66 1.553 1.779c-.309.24-.645.468-1.016.677a7.637 7.637 0 0 1-3.805 1.011c-4.25 0-7.716-3.478-7.716-7.743 0-4.265 3.466-7.743 7.716-7.743"/><path d="M14.383 15.292l1.835-1.658 1.652 1.841-1.834 1.658-1.653-1.841m1.305 3.181l1.835-1.657 1.652 1.841-1.835 1.658-1.652-1.842m-2.618-6.326l1.835-1.657 1.652 1.841-1.835 1.658-1.652-1.842m3.367-.892l1.377-1.243 1.239 1.38-1.377 1.244-1.239-1.381m2.446 5.695l1.376-1.243 1.24 1.38-1.377 1.244-1.24-1.38m1.211 2.789l1.376-1.244 1.24 1.38-1.377 1.244-1.239-1.38m.555-6.393l.917-.83.826.921-.917.83-.826-.921m-1.173-2.736l.918-.829.826.921-.918.829-.826-.92m2.345 5.47l.918-.829.826.92-.917.83-.826-.921m-4.115-2.05l1.376-1.244 1.24 1.381-1.377 1.244-1.239-1.38"/></g></g></svg>