<svg xmlns="http://www.w3.org/2000/svg" viewBox="0 0 32 32"><g fill="none" fill-rule="evenodd"><rect width="32" height="32" fill="#FACA22" rx="16"/><path fill="#FFF" d="M8 14.263c0-1.155.097-1.887 2.488-3.672 1.979-1.477 8.323-6.526 8.323-6.526v8.428h4.824v12.13H9.507A1.512 1.512 0 0 1 8 23.116v-8.853zm10.81-1.77v4.884l-8.864 6.039 11.208-3.647v-7.276h-2.343zm-4.05-.252c-.519.617-.602 1.4-.186 1.75.416.348 1.173.13 1.691-.487.519-.618.602-1.402.186-1.75-.416-.35-1.173-.131-1.691.487z"/></g></svg>