<svg xmlns="http://www.w3.org/2000/svg" viewBox="0 0 32 24"><g fill="none"><path fill="#1A1A1A" d="M8.259 20.872v-1.18c0-.453-.275-.748-.748-.748a.776.776 0 0 0-.668.335c-.138-.217-.335-.335-.63-.335a.635.635 0 0 0-.55.276v-.236h-.414v1.888h.413V19.83c0-.335.177-.492.453-.492.275 0 .413.177.413.492v1.042h.413V19.83c0-.335.197-.492.452-.492.276 0 .414.177.414.492v1.042h.452zm6.118-1.888h-.669v-.57h-.413v.57h-.374v.373h.374v.866c0 .433.177.688.65.688a1.1 1.1 0 0 0 .51-.137l-.117-.354a.647.647 0 0 1-.354.098c-.197 0-.276-.118-.276-.315v-.846h.669v-.373zm3.502-.04a.555.555 0 0 0-.492.276v-.236h-.413v1.888h.413V19.81c0-.315.138-.492.393-.492.079 0 .177.02.256.04l.118-.394c-.079-.02-.197-.02-.275-.02zm-5.292.197c-.197-.138-.472-.197-.767-.197-.472 0-.787.236-.787.61 0 .315.236.492.649.55l.197.02c.216.04.334.099.334.197 0 .138-.157.236-.433.236-.275 0-.491-.098-.63-.196l-.196.314c.216.158.512.236.807.236.55 0 .865-.255.865-.61 0-.334-.256-.51-.649-.57l-.197-.02c-.177-.02-.314-.059-.314-.177 0-.137.137-.216.354-.216.236 0 .472.098.59.157l.177-.334zm10.977-.197a.555.555 0 0 0-.492.276v-.236h-.413v1.888h.413V19.81c0-.315.138-.492.394-.492.078 0 .177.02.255.04l.118-.394c-.078-.02-.196-.02-.275-.02zm-5.272.984c0 .57.393.983 1.003.983.275 0 .472-.059.669-.216l-.197-.334a.795.795 0 0 1-.492.177c-.334 0-.57-.236-.57-.61a.58.58 0 0 1 .57-.61c.177 0 .335.059.492.177l.197-.334c-.197-.158-.394-.217-.669-.217-.61 0-1.003.413-1.003.984zm3.816 0v-.944h-.413v.236a.71.71 0 0 0-.59-.276c-.531 0-.944.413-.944.984 0 .57.413.983.944.983.275 0 .472-.098.59-.275v.236h.413v-.944zm-1.515 0c0-.335.217-.61.57-.61.335 0 .571.256.571.61 0 .334-.236.61-.57.61-.354-.02-.57-.276-.57-.61zm-4.937-.984c-.551 0-.945.394-.945.984s.394.983.964.983c.276 0 .551-.078.768-.255l-.197-.295a.94.94 0 0 1-.55.196c-.257 0-.512-.118-.571-.452h1.396v-.157c.02-.61-.334-1.004-.865-1.004zm0 .354c.255 0 .433.158.472.453h-.984c.04-.256.217-.453.512-.453zm10.249.63v-1.692h-.413v.984a.71.71 0 0 0-.59-.276c-.532 0-.945.413-.945.984 0 .57.413.983.945.983.275 0 .472-.098.59-.275v.236h.413v-.944zm-1.515 0c0-.335.217-.61.57-.61.335 0 .571.256.571.61 0 .334-.236.61-.57.61-.354-.02-.57-.276-.57-.61zm-13.81 0v-.944h-.413v.236a.71.71 0 0 0-.59-.276c-.531 0-.944.413-.944.984 0 .57.413.983.944.983.275 0 .472-.098.59-.275v.236h.413v-.944zm-1.534 0c0-.335.216-.61.57-.61.335 0 .57.256.57.61 0 .334-.235.61-.57.61-.354-.02-.57-.276-.57-.61z"/><path fill="#FF5F00" d="M12.469 4.643h6.197v11.134h-6.197z"/><path fill="#EB001B" d="M12.843 10.21a7.1 7.1 0 0 1 2.695-5.567 7.078 7.078 0 0 0-11.45 5.567 7.078 7.078 0 0 0 11.45 5.567 7.071 7.071 0 0 1-2.695-5.567z"/><path fill="#F79E1B" d="M27.007 10.21a7.078 7.078 0 0 1-11.45 5.567 7.042 7.042 0 0 0 2.695-5.567 7.1 7.1 0 0 0-2.695-5.567 7.039 7.039 0 0 1 4.368-1.515c3.914 0 7.082 3.187 7.082 7.082z"/></g></svg>