<svg xmlns="http://www.w3.org/2000/svg" width="48" height="24"><g fill-rule="evenodd"><rect width="48" height="24" fill="#1A1B1F" rx="4"/><path fill="#FFF" d="M8.25 17.64V6.915h7.245V9.3H11.34v2.28h3.315v2.265H11.34v3.795H8.25zm14.325.18c-3.75 0-5.595-2.19-5.595-5.475v-.12c0-3.3 2.34-5.475 5.475-5.475 2.79 0 4.725 1.29 4.98 4.125H24.27c-.12-1.095-.72-1.695-1.8-1.695-1.38 0-2.25 1.08-2.25 3.03v.12c0 1.935.825 3.03 2.295 3.03 1.08 0 1.845-.57 1.995-1.755h3.06c-.21 2.775-2.22 4.215-4.995 4.215zM34.05 9.405l-1.185 4.125h2.355l-1.17-4.125zm-5.22 8.235l3.435-10.725h3.975l3.405 10.725H36.39l-.57-1.995h-3.555l-.57 1.995H28.83z"/></g></svg>