<svg xmlns="http://www.w3.org/2000/svg" viewBox="0 0 48 48"><g fill="none" fill-rule="evenodd"><path fill="#E1E4FE" d="M0 24c0 13.255 10.745 24 24 24s24-10.745 24-24S37.255 0 24 0 0 10.745 0 24"/><path fill="#627AFB" d="M19 15.004c0-.554.45-1.004.995-1.004h8.01A1 1 0 0 1 29 15.004V18h4.001a1 1 0 0 1 .999.995v8.01A.999.999 0 0 1 33 28v5.003c0 .55-.445.997-1 .997H16a1 1 0 0 1-1-.997V28a1 1 0 0 1-1-.995v-8.01c0-.55.446-.995.999-.995H19v-2.996zM21 18h6v-2h-6v2zm-4 14h14v-4h-4v.996C27 29.55 26.549 30 25.996 30h-3.992A1.005 1.005 0 0 1 21 28.996V28h-4v4zm10-6h5v-6H16v6h5v-.996c0-.554.451-1.004 1.004-1.004h3.992c.554 0 1.004.451 1.004 1.004V26zm-4 0v2h2v-2h-2z"/></g></svg>