<svg xmlns="http://www.w3.org/2000/svg" xmlns:xlink="http://www.w3.org/1999/xlink" viewBox="0 0 24 24"><defs><rect id="a" width="24" height="24" rx="3"/></defs><g fill="none" fill-rule="evenodd"><use fill="#FFF" xlink:href="#a"/><rect width="23" height="23" x=".5" y=".5" stroke="#E6E6E6" rx="3"/><path fill="#1A1A1A" d="M10.995 13.967v-.519c0-1.08.724-1.749 1.38-2.39.505-.506.956-.957.956-1.544 0-.697-.383-1.148-1.216-1.148-.847 0-1.435.601-1.53 1.544H9C9.096 8.12 10.366 7 12.197 7c1.953 0 2.869 1.066 2.869 2.39 0 .97-.588 1.6-1.203 2.2-.642.615-1.297 1.175-1.338 1.94v.437h-1.53zm.75 3.033c-.614 0-1.12-.464-1.12-1.052 0-.601.506-1.065 1.12-1.065.602 0 1.094.464 1.094 1.065 0 .588-.492 1.052-1.093 1.052z"/></g></svg>